<svg xmlns="http://www.w3.org/2000/svg" xmlns:xlink="http://www.w3.org/1999/xlink" width="500" zoomAndPan="magnify" viewBox="0 0 375 374.999991" height="500" preserveAspectRatio="xMidYMid meet" version="1.0"><defs><clipPath id="5ed225b9e1"><path d="M 31.234375 252 L 343.984375 252 L 343.984375 374.9375 L 31.234375 374.9375 Z M 31.234375 252 " clip-rule="nonzero"/></clipPath><clipPath id="bba2bf1529"><path d="M 31.234375 284 L 343.984375 284 L 343.984375 374.9375 L 31.234375 374.9375 Z M 31.234375 284 " clip-rule="nonzero"/></clipPath></defs><path fill="#252627" d="M 143.617188 20.734375 C 143.617188 20.734375 149.503906 8.964844 177.316406 6 C 205.128906 3.035156 209.332031 13.566406 229.128906 15.246094 C 248.921875 16.925781 285.195312 35.863281 287.667969 68.695312 C 290.191406 101.523438 298.160156 96.382812 303.652344 111.363281 C 309.144531 126.34375 301.523438 140.730469 297.320312 149.53125 C 293.113281 158.332031 299.890625 170.941406 305.535156 182.3125 C 311.175781 193.683594 292.023438 196.601562 293.3125 209.257812 C 294.597656 221.867188 306.175781 230.914062 301.078125 242.730469 C 296.03125 254.5 286.53125 265.871094 302.761719 279.960938 C 318.992188 294.054688 303.503906 325.796875 270.894531 331.582031 C 238.28125 337.367188 79.136719 331.582031 79.136719 331.582031 C 79.136719 331.582031 89.230469 296.722656 79.136719 290.839844 C 69.042969 284.957031 74.730469 269.183594 79.136719 260.332031 C 83.539062 251.484375 63.351562 243.277344 67.109375 223.746094 C 70.921875 204.167969 78.789062 207.824219 69.339844 192.644531 C 59.886719 177.515625 63.648438 157.292969 73.941406 144.339844 C 84.183594 131.4375 80.71875 113.09375 76.167969 99.398438 C 71.613281 85.703125 84.53125 9.609375 143.617188 20.734375 Z M 143.617188 20.734375 " fill-opacity="1" fill-rule="nonzero"/><path fill="#f4e5e0" d="M 342.300781 373.359375 L 33.015625 373.359375 C 33.015625 373.359375 41.527344 346.214844 69.980469 302.015625 C 98.386719 257.8125 187.660156 253.410156 187.660156 253.410156 C 187.660156 253.410156 276.929688 257.8125 305.335938 302.015625 C 333.789062 346.214844 342.300781 373.359375 342.300781 373.359375 Z M 342.300781 373.359375 " fill-opacity="1" fill-rule="nonzero"/><path fill="#f4e5e0" d="M 342.300781 373.359375 L 33.015625 373.359375 C 33.015625 373.359375 39.003906 354.273438 57.660156 322.085938 C 57.660156 322.085938 57.660156 322.085938 57.707031 322.085938 C 61.320312 315.859375 65.378906 309.183594 69.980469 302.015625 C 98.386719 257.8125 187.660156 253.410156 187.660156 253.410156 C 187.660156 253.410156 276.929688 257.8125 305.335938 302.015625 C 309.9375 309.183594 313.996094 315.859375 317.609375 322.085938 C 336.3125 354.273438 342.300781 373.359375 342.300781 373.359375 Z M 342.300781 373.359375 " fill-opacity="1" fill-rule="nonzero"/><g clip-path="url(#5ed225b9e1)"><path fill="#252627" d="M 342.300781 374.695312 L 33.015625 374.695312 C 32.570312 374.695312 32.222656 374.496094 31.976562 374.152344 C 31.730469 373.804688 31.679688 373.359375 31.777344 372.964844 C 31.828125 372.765625 38.011719 353.382812 56.519531 321.445312 C 56.570312 321.347656 56.621094 321.246094 56.71875 321.199219 C 60.480469 314.671875 64.585938 307.996094 68.894531 301.320312 C 97.347656 257.070312 183.945312 252.273438 187.609375 252.125 C 191.417969 252.324219 278.019531 257.070312 306.472656 301.320312 C 310.828125 308.09375 314.9375 314.867188 318.796875 321.445312 C 337.351562 353.382812 343.539062 372.765625 343.589844 372.964844 C 343.738281 373.359375 343.636719 373.804688 343.390625 374.152344 C 343.144531 374.496094 342.746094 374.695312 342.300781 374.695312 Z M 34.894531 372.074219 L 340.46875 372.074219 C 338.539062 366.734375 331.761719 349.035156 316.46875 322.78125 C 312.660156 316.203125 308.550781 309.480469 304.246094 302.753906 C 276.535156 259.640625 188.5 254.796875 187.609375 254.746094 C 186.867188 254.796875 98.832031 259.640625 71.121094 302.753906 C 66.8125 309.480469 62.65625 316.203125 58.898438 322.78125 C 58.847656 322.878906 58.796875 322.976562 58.699219 323.027344 C 43.507812 349.183594 36.777344 366.734375 34.894531 372.074219 Z M 34.894531 372.074219 " fill-opacity="1" fill-rule="nonzero"/></g><path fill="#f4e5e0" d="M 164.398438 262.558594 C 170.4375 243.96875 167.269531 208.269531 167.269531 208.269531 L 208.046875 208.269531 C 208.046875 208.269531 204.878906 243.96875 210.917969 262.558594 " fill-opacity="1" fill-rule="nonzero"/><path fill="#252627" d="M 165.636719 262.953125 L 163.113281 262.164062 C 169.003906 244.015625 165.933594 208.765625 165.933594 208.417969 L 165.785156 206.984375 L 209.433594 206.984375 L 209.285156 208.417969 C 209.234375 208.765625 206.214844 244.066406 212.105469 262.164062 L 209.582031 262.953125 C 204.136719 246.242188 206.019531 216.527344 206.511719 209.554688 L 168.605469 209.554688 C 169.199219 216.527344 171.082031 246.242188 165.636719 262.953125 Z M 165.636719 262.953125 " fill-opacity="1" fill-rule="nonzero"/><path fill="#f4e5e0" d="M 260.253906 136.675781 C 260.253906 136.675781 273.515625 127.828125 283.613281 137.617188 C 293.707031 147.40625 285.195312 181.027344 254.21875 169.308594 Z M 260.253906 136.675781 " fill-opacity="1" fill-rule="nonzero"/><path fill="#252627" d="M 266.339844 173.117188 C 262.726562 173.117188 258.570312 172.375 253.769531 170.59375 L 252.730469 170.199219 L 259.015625 135.886719 L 259.460938 135.589844 C 259.609375 135.492188 273.714844 126.292969 284.503906 136.675781 C 290.242188 142.265625 290.441406 154.328125 284.949219 163.03125 C 282.71875 166.539062 277.128906 173.117188 266.339844 173.117188 Z M 255.75 168.46875 C 267.527344 172.574219 277.328125 170.101562 282.769531 161.597656 C 287.570312 154.03125 287.570312 143.253906 282.71875 138.554688 C 274.40625 130.496094 263.816406 136.082031 261.441406 137.46875 Z M 255.75 168.46875 " fill-opacity="1" fill-rule="nonzero"/><path fill="#f4e5e0" d="M 267.082031 160.113281 C 267.082031 160.113281 268.566406 143.152344 278.5625 144.441406 " fill-opacity="1" fill-rule="nonzero"/><path fill="#252627" d="M 267.082031 161.449219 C 267.035156 161.449219 266.984375 161.449219 266.984375 161.449219 C 266.242188 161.398438 265.699219 160.753906 265.796875 160.015625 C 265.847656 159.570312 266.785156 149.335938 272.128906 144.984375 C 274.0625 143.449219 276.238281 142.808594 278.710938 143.152344 C 279.453125 143.253906 279.949219 143.894531 279.851562 144.636719 C 279.75 145.378906 279.109375 145.875 278.367188 145.773438 C 276.585938 145.578125 275.101562 145.972656 273.765625 147.058594 C 269.261719 150.667969 268.371094 160.164062 268.371094 160.261719 C 268.371094 160.953125 267.777344 161.449219 267.082031 161.449219 Z M 267.082031 161.449219 " fill-opacity="1" fill-rule="nonzero"/><path fill="#f4e5e0" d="M 269.457031 151.808594 C 269.457031 151.808594 273.714844 151.113281 276.4375 154.378906 " fill-opacity="1" fill-rule="nonzero"/><path fill="#252627" d="M 276.484375 155.710938 C 276.089844 155.710938 275.742188 155.5625 275.496094 155.21875 C 273.269531 152.546875 269.753906 153.09375 269.707031 153.09375 C 269.011719 153.191406 268.320312 152.695312 268.171875 152.003906 C 268.074219 151.261719 268.566406 150.621094 269.261719 150.472656 C 269.457031 150.421875 274.308594 149.730469 277.476562 153.488281 C 277.921875 154.03125 277.871094 154.871094 277.328125 155.367188 C 277.078125 155.613281 276.78125 155.710938 276.484375 155.710938 Z M 276.484375 155.710938 " fill-opacity="1" fill-rule="nonzero"/><path fill="#f4e5e0" d="M 115.0625 136.675781 C 115.0625 136.675781 101.800781 127.828125 91.707031 137.617188 C 81.609375 147.40625 90.121094 181.027344 121.101562 169.308594 Z M 115.0625 136.675781 " fill-opacity="1" fill-rule="nonzero"/><path fill="#252627" d="M 108.976562 173.117188 C 98.1875 173.117188 92.546875 166.539062 90.320312 163.03125 C 84.777344 154.328125 84.976562 142.265625 90.765625 136.675781 C 101.503906 126.292969 115.65625 135.492188 115.804688 135.589844 L 116.25 135.886719 L 122.535156 170.199219 L 121.496094 170.59375 C 116.695312 172.375 112.539062 173.117188 108.976562 173.117188 Z M 102.988281 134.304688 C 99.625 134.304688 95.910156 135.34375 92.597656 138.554688 C 87.746094 143.253906 87.746094 153.980469 92.546875 161.597656 C 97.941406 170.101562 107.738281 172.574219 119.566406 168.46875 L 113.875 137.46875 C 112.441406 136.628906 108.085938 134.304688 102.988281 134.304688 Z M 102.988281 134.304688 " fill-opacity="1" fill-rule="nonzero"/><path fill="#f4e5e0" d="M 108.183594 160.113281 C 108.183594 160.113281 106.699219 143.152344 96.703125 144.441406 " fill-opacity="1" fill-rule="nonzero"/><path fill="#252627" d="M 108.183594 161.449219 C 107.492188 161.449219 106.945312 160.953125 106.847656 160.261719 C 106.847656 160.164062 105.957031 150.667969 101.453125 147.058594 C 100.117188 145.972656 98.632812 145.578125 96.851562 145.773438 C 96.160156 145.875 95.464844 145.328125 95.367188 144.636719 C 95.269531 143.894531 95.8125 143.253906 96.503906 143.152344 C 98.980469 142.859375 101.207031 143.449219 103.085938 144.984375 C 108.480469 149.335938 109.421875 159.570312 109.421875 160.015625 C 109.472656 160.757812 108.925781 161.398438 108.234375 161.449219 C 108.285156 161.449219 108.234375 161.449219 108.183594 161.449219 Z M 108.183594 161.449219 " fill-opacity="1" fill-rule="nonzero"/><path fill="#f4e5e0" d="M 105.808594 151.808594 C 105.808594 151.808594 101.554688 151.113281 98.832031 154.378906 " fill-opacity="1" fill-rule="nonzero"/><path fill="#252627" d="M 98.832031 155.710938 C 98.535156 155.710938 98.238281 155.613281 97.992188 155.417969 C 97.445312 154.972656 97.347656 154.128906 97.84375 153.539062 C 101.007812 149.730469 105.859375 150.472656 106.054688 150.519531 C 106.75 150.621094 107.246094 151.3125 107.144531 152.003906 C 107.046875 152.695312 106.402344 153.191406 105.660156 153.09375 C 105.511719 153.09375 102.046875 152.597656 99.871094 155.21875 C 99.574219 155.5625 99.226562 155.710938 98.832031 155.710938 Z M 98.832031 155.710938 " fill-opacity="1" fill-rule="nonzero"/><path fill="#f4e5e0" d="M 187.660156 231.015625 C 127.484375 227.503906 111.894531 167.925781 109.421875 118.382812 C 107.542969 80.90625 130.847656 47.777344 163.410156 40.808594 C 179.445312 37.347656 195.875 37.347656 211.855469 40.808594 C 244.417969 47.828125 267.726562 80.90625 265.847656 118.382812 C 263.421875 167.925781 247.832031 227.503906 187.660156 231.015625 Z M 187.660156 231.015625 " fill-opacity="1" fill-rule="nonzero"/><path fill="#252627" d="M 187.660156 232.347656 L 187.558594 232.347656 C 126.394531 228.789062 110.558594 168.46875 108.085938 118.480469 C 106.203125 80.609375 129.859375 46.691406 163.113281 39.523438 C 179.394531 36.011719 195.875 36.011719 212.152344 39.523438 C 245.410156 46.691406 269.0625 80.609375 267.183594 118.480469 C 264.707031 168.46875 248.921875 228.789062 187.707031 232.347656 Z M 187.660156 39.523438 C 179.640625 39.523438 171.675781 40.363281 163.707031 42.09375 C 131.691406 48.964844 108.925781 81.746094 110.757812 118.332031 C 113.183594 167.234375 128.472656 226.21875 187.660156 229.726562 C 246.84375 226.21875 262.132812 167.234375 264.558594 118.332031 C 266.390625 81.746094 243.625 48.964844 211.609375 42.09375 C 203.640625 40.363281 195.675781 39.523438 187.660156 39.523438 Z M 187.660156 39.523438 " fill-opacity="1" fill-rule="nonzero"/><path fill="#252627" d="M 159.304688 121.300781 C 159.898438 123.328125 155.394531 126.441406 149.257812 128.222656 C 143.121094 130.003906 137.679688 129.804688 137.085938 127.777344 C 136.492188 125.75 140.992188 122.636719 147.128906 120.855469 C 153.214844 119.027344 158.710938 119.273438 159.304688 121.300781 Z M 159.304688 121.300781 " fill-opacity="1" fill-rule="nonzero"/><path fill="#252627" d="M 216.015625 121.300781 C 215.421875 123.328125 219.921875 126.441406 226.058594 128.222656 C 232.195312 130.003906 237.640625 129.804688 238.234375 127.777344 C 238.828125 125.75 234.324219 122.636719 228.1875 120.855469 C 222.050781 119.027344 216.609375 119.273438 216.015625 121.300781 Z M 216.015625 121.300781 " fill-opacity="1" fill-rule="nonzero"/><path fill="#252627" d="M 154.402344 143.300781 C 154.402344 146.761719 151.582031 149.53125 148.167969 149.53125 C 144.703125 149.53125 141.933594 146.714844 141.933594 143.300781 C 141.933594 139.839844 144.753906 137.074219 148.167969 137.074219 C 151.632812 137.074219 154.402344 139.839844 154.402344 143.300781 Z M 154.402344 143.300781 " fill-opacity="1" fill-rule="nonzero"/><path fill="#252627" d="M 233.382812 143.300781 C 233.382812 146.761719 230.5625 149.53125 227.148438 149.53125 C 223.683594 149.53125 220.914062 146.714844 220.914062 143.300781 C 220.914062 139.839844 223.734375 137.074219 227.148438 137.074219 C 230.5625 137.074219 233.382812 139.839844 233.382812 143.300781 Z M 233.382812 143.300781 " fill-opacity="1" fill-rule="nonzero"/><path fill="#f4e5e0" d="M 194.140625 161.449219 C 194.140625 161.449219 180.382812 161.449219 181.226562 169.753906 C 181.96875 177.269531 194.140625 174.648438 194.140625 174.648438 " fill-opacity="1" fill-rule="nonzero"/><path fill="#252627" d="M 189.6875 176.429688 C 187.3125 176.429688 184.539062 176.035156 182.511719 174.601562 C 180.976562 173.460938 180.085938 171.878906 179.890625 169.902344 C 179.691406 167.726562 180.285156 165.847656 181.671875 164.316406 C 185.433594 160.164062 193.792969 160.113281 194.140625 160.113281 C 194.882812 160.113281 195.476562 160.707031 195.476562 161.449219 C 195.476562 162.191406 194.882812 162.78125 194.140625 162.78125 C 194.042969 162.78125 186.570312 162.832031 183.601562 166.09375 C 182.710938 167.085938 182.363281 168.222656 182.511719 169.65625 C 182.660156 170.890625 183.15625 171.832031 184.046875 172.472656 C 186.667969 174.402344 192.011719 173.808594 193.84375 173.414062 C 194.585938 173.265625 195.28125 173.710938 195.429688 174.453125 C 195.578125 175.144531 195.128906 175.886719 194.386719 176.035156 C 194.238281 175.984375 192.210938 176.429688 189.6875 176.429688 Z M 189.6875 176.429688 " fill-opacity="1" fill-rule="nonzero"/><path fill="#f4e5e0" d="M 173.257812 195.367188 C 173.257812 195.367188 174.941406 204.808594 187.957031 204.660156 C 200.375 204.5625 202.007812 195.367188 202.007812 195.367188 " fill-opacity="1" fill-rule="nonzero"/><path fill="#252627" d="M 187.707031 205.996094 C 174 205.996094 172.019531 195.710938 171.972656 195.613281 C 171.824219 194.871094 172.316406 194.230469 173.058594 194.082031 C 173.753906 193.933594 174.445312 194.425781 174.59375 195.117188 C 174.644531 195.515625 176.328125 203.324219 187.707031 203.324219 C 187.808594 203.324219 187.855469 203.324219 187.957031 203.324219 C 199.140625 203.226562 200.722656 195.167969 200.722656 195.117188 C 200.871094 194.375 201.515625 193.933594 202.257812 194.082031 C 202.949219 194.230469 203.445312 194.871094 203.296875 195.613281 C 203.296875 195.710938 201.316406 205.898438 187.957031 205.996094 C 187.90625 205.996094 187.808594 205.996094 187.707031 205.996094 Z M 187.707031 205.996094 " fill-opacity="1" fill-rule="nonzero"/><path fill="#252627" d="M 96.703125 108.890625 C 96.652344 110.621094 119.566406 117.742188 129.363281 102.90625 C 139.164062 88.074219 131.589844 88.71875 144.210938 84.613281 C 156.828125 80.511719 154.402344 59.347656 154.402344 59.347656 C 154.402344 59.347656 172.761719 84.269531 186.621094 83.972656 C 200.476562 83.675781 209.628906 78.582031 218.488281 90.894531 C 227.347656 103.203125 238.085938 107.011719 249.464844 103.203125 C 260.847656 99.398438 276.484375 111.511719 276.484375 111.511719 C 276.484375 111.511719 281.039062 60.632812 241.25 41.996094 C 201.414062 23.402344 100.070312 15.492188 96.703125 108.890625 Z M 96.703125 108.890625 " fill-opacity="1" fill-rule="nonzero"/><path fill="#252627" d="M 342.300781 373.359375 L 33.015625 373.359375 C 33.015625 373.359375 39.003906 354.273438 57.660156 322.085938 C 57.660156 322.085938 57.660156 322.085938 57.707031 322.085938 C 60.875 322.730469 182.015625 346.90625 317.609375 322.085938 C 336.3125 354.273438 342.300781 373.359375 342.300781 373.359375 Z M 342.300781 373.359375 " fill-opacity="1" fill-rule="nonzero"/><g clip-path="url(#bba2bf1529)"><path stroke-linecap="butt" transform="matrix(4.948576, 0, 0, 4.944274, 31.234053, 5.505657)" fill="none" stroke-linejoin="miter" d="M 62.859853 74.399953 L 0.360017 74.399953 C 0.360017 74.399953 1.570119 70.539742 5.340144 64.029686 C 5.340144 64.029686 5.340144 64.029686 5.349616 64.029686 C 5.989794 64.160045 30.469692 69.049698 57.870254 64.029686 C 61.649751 70.539742 62.859853 74.399953 62.859853 74.399953 Z M 62.859853 74.399953 " stroke="#000000" stroke-width="0.532" stroke-opacity="1" stroke-miterlimit="10"/></g><path fill="#252627" d="M 109.324219 271.410156 C 109.324219 271.410156 115.457031 289.207031 109.324219 327.921875 L 126.34375 330.839844 C 126.34375 330.839844 131.789062 301.023438 126.34375 266.515625 C 126.296875 266.515625 114.371094 267.75 109.324219 271.410156 Z M 109.324219 271.410156 " fill-opacity="1" fill-rule="nonzero"/><path fill="#252627" d="M 265.996094 271.410156 C 265.996094 271.410156 259.859375 289.207031 265.996094 327.921875 L 248.972656 330.839844 C 248.972656 330.839844 243.527344 301.023438 248.972656 266.515625 C 248.972656 266.515625 260.898438 267.75 265.996094 271.410156 Z M 265.996094 271.410156 " fill-opacity="1" fill-rule="nonzero"/></svg>