<svg xmlns="http://www.w3.org/2000/svg" xmlns:xlink="http://www.w3.org/1999/xlink" width="500" zoomAndPan="magnify" viewBox="0 0 375 374.999991" height="500" preserveAspectRatio="xMidYMid meet" version="1.0"><defs><clipPath id="6cfae1d34d"><path d="M 37.5 256 L 340.5 256 L 340.5 375 L 37.5 375 Z M 37.5 256 " clip-rule="nonzero"/></clipPath></defs><path fill="#252627" d="M 273.707031 46.988281 C 273.707031 46.988281 281.867188 54.1875 287.007812 73.382812 C 292.097656 92.578125 299.683594 95.214844 303.332031 97.664062 C 307.03125 100.113281 292.722656 105.007812 287.582031 101.121094 C 282.492188 97.230469 295.554688 109.710938 290.847656 127.035156 C 286.140625 144.40625 281.386719 126.027344 281.386719 126.027344 C 281.386719 126.027344 280.042969 148.484375 273.707031 162.785156 C 267.367188 177.085938 273.898438 190.140625 276.972656 191.578125 C 280.042969 193.019531 264.101562 199.929688 246.71875 176.894531 C 229.335938 153.8125 232.839844 50.296875 232.839844 50.296875 Z M 273.707031 46.988281 " fill-opacity="1" fill-rule="nonzero"/><path fill="#252627" d="M 103.957031 46.988281 C 103.957031 46.988281 95.796875 54.1875 90.65625 73.382812 C 85.566406 92.578125 77.980469 95.214844 74.332031 97.664062 C 70.632812 100.113281 84.941406 105.007812 90.082031 101.121094 C 95.171875 97.230469 82.109375 109.710938 86.816406 127.035156 C 91.519531 144.40625 96.273438 126.027344 96.273438 126.027344 C 96.273438 126.027344 97.621094 148.484375 103.957031 162.785156 C 110.296875 177.085938 103.765625 190.140625 100.691406 191.578125 C 97.621094 193.019531 113.5625 199.929688 130.945312 176.894531 C 148.328125 153.859375 144.824219 50.296875 144.824219 50.296875 Z M 103.957031 46.988281 " fill-opacity="1" fill-rule="nonzero"/><path fill="#f4e5e0" d="M 338.914062 373.792969 L 38.796875 373.792969 C 38.796875 373.792969 47.054688 347.449219 74.667969 304.546875 C 102.230469 261.644531 188.855469 257.371094 188.855469 257.371094 C 188.855469 257.371094 275.480469 261.644531 303.046875 304.546875 C 330.65625 347.449219 338.914062 373.792969 338.914062 373.792969 Z M 338.914062 373.792969 " fill-opacity="1" fill-rule="nonzero"/><path fill="#f4e5e0" d="M 38.796875 373.792969 C 38.796875 373.792969 47.054688 347.449219 74.667969 304.546875 C 102.230469 261.644531 188.855469 257.371094 188.855469 257.371094 C 188.855469 257.371094 275.480469 261.644531 303.046875 304.546875 C 330.65625 347.449219 338.914062 373.792969 338.914062 373.792969 " fill-opacity="1" fill-rule="nonzero"/><g clip-path="url(#6cfae1d34d)"><path fill="#252627" d="M 338.914062 375.042969 C 338.386719 375.042969 337.859375 374.707031 337.714844 374.128906 C 337.617188 373.890625 329.167969 347.398438 301.988281 305.167969 C 275.097656 263.324219 189.671875 258.621094 188.808594 258.570312 C 188.085938 258.621094 102.660156 263.324219 75.769531 305.167969 C 48.59375 347.398438 40.140625 373.84375 40.046875 374.128906 C 39.851562 374.800781 39.132812 375.1875 38.460938 374.945312 C 37.789062 374.753906 37.402344 374.035156 37.644531 373.363281 C 37.738281 373.121094 46.289062 346.34375 73.660156 303.824219 C 101.269531 260.875 185.300781 256.21875 188.855469 256.078125 C 192.554688 256.269531 276.585938 260.875 304.199219 303.824219 C 331.570312 346.390625 340.117188 373.121094 340.210938 373.363281 C 340.402344 374.035156 340.066406 374.753906 339.394531 374.945312 C 339.15625 375.042969 339.011719 375.042969 338.914062 375.042969 Z M 338.914062 375.042969 " fill-opacity="1" fill-rule="nonzero"/></g><path fill="#252627" d="M 226.214844 262.652344 C 223.910156 274.695312 215.890625 299.507812 188.808594 299.9375 C 161.675781 300.417969 153.65625 275.03125 151.351562 262.699219 C 172.289062 258.1875 188.808594 257.371094 188.808594 257.371094 C 188.808594 257.371094 205.328125 258.1875 226.214844 262.652344 Z M 226.214844 262.652344 " fill-opacity="1" fill-rule="nonzero"/><path fill="#f4e5e0" d="M 211.425781 266.25 C 211.425781 266.25 211.425781 267.066406 211.28125 268.457031 C 208.160156 294.515625 169.601562 294.515625 166.480469 268.457031 C 166.335938 267.066406 166.335938 266.25 166.335938 266.25 C 172.144531 248.207031 169.070312 213.558594 169.070312 213.558594 L 208.640625 213.558594 C 208.640625 213.558594 205.566406 248.207031 211.425781 266.25 Z M 211.425781 266.25 " fill-opacity="1" fill-rule="nonzero"/><path fill="#252627" d="M 188.855469 289.238281 C 178.292969 289.238281 166.863281 282.855469 165.183594 268.554688 C 164.992188 267.066406 164.992188 266.203125 164.992188 266.203125 L 165.039062 265.820312 C 170.753906 248.207031 167.777344 213.988281 167.777344 213.605469 L 167.632812 212.214844 L 209.984375 212.214844 L 209.886719 213.652344 C 209.839844 213.988281 206.910156 248.253906 212.625 265.867188 L 212.671875 266.25 C 212.671875 266.25 212.671875 267.113281 212.480469 268.601562 C 210.800781 282.855469 199.371094 289.238281 188.855469 289.238281 Z M 167.535156 266.441406 C 167.535156 266.730469 167.582031 267.355469 167.679688 268.265625 C 169.214844 280.984375 179.394531 286.695312 188.808594 286.695312 C 198.21875 286.695312 208.449219 280.984375 209.9375 268.265625 C 210.03125 267.355469 210.082031 266.730469 210.082031 266.441406 C 204.894531 250.175781 206.671875 221.523438 207.199219 214.855469 L 170.417969 214.855469 C 170.945312 221.523438 172.722656 250.175781 167.535156 266.441406 Z M 167.535156 266.441406 " fill-opacity="1" fill-rule="nonzero"/><path fill="#f4e5e0" d="M 259.300781 144.070312 C 259.300781 144.070312 272.167969 135.480469 281.964844 144.980469 C 291.761719 154.484375 283.5 187.117188 253.441406 175.742188 Z M 259.300781 144.070312 " fill-opacity="1" fill-rule="nonzero"/><path fill="#252627" d="M 265.207031 179.4375 C 261.75 179.4375 257.667969 178.71875 253.058594 176.992188 L 252.050781 176.605469 L 258.148438 143.300781 L 258.578125 143.015625 C 258.722656 142.917969 272.410156 133.992188 282.878906 144.070312 C 288.449219 149.492188 288.640625 161.203125 283.308594 169.648438 C 281.101562 173.054688 275.675781 179.4375 265.207031 179.4375 Z M 254.929688 174.925781 C 266.359375 178.910156 275.914062 176.511719 281.148438 168.257812 C 285.804688 160.867188 285.804688 150.453125 281.101562 145.894531 C 273.128906 138.167969 262.710938 143.542969 260.453125 144.835938 Z M 254.929688 174.925781 " fill-opacity="1" fill-rule="nonzero"/><path fill="#f4e5e0" d="M 265.925781 166.816406 C 265.925781 166.816406 267.367188 150.355469 277.066406 151.605469 " fill-opacity="1" fill-rule="nonzero"/><path fill="#252627" d="M 265.925781 168.113281 C 265.878906 168.113281 265.832031 168.113281 265.832031 168.113281 C 265.109375 168.0625 264.628906 167.441406 264.679688 166.71875 C 264.726562 166.289062 265.636719 156.355469 270.824219 152.132812 C 272.695312 150.644531 274.859375 150.019531 277.210938 150.308594 C 277.929688 150.402344 278.410156 151.027344 278.316406 151.746094 C 278.21875 152.46875 277.546875 152.898438 276.875 152.851562 C 275.144531 152.660156 273.707031 153.042969 272.410156 154.097656 C 268.039062 157.652344 267.175781 166.816406 267.175781 166.914062 C 267.125 167.585938 266.597656 168.113281 265.925781 168.113281 Z M 265.925781 168.113281 " fill-opacity="1" fill-rule="nonzero"/><path fill="#f4e5e0" d="M 268.230469 158.753906 C 268.230469 158.753906 272.359375 158.082031 275.003906 161.25 " fill-opacity="1" fill-rule="nonzero"/><path fill="#252627" d="M 275.003906 162.546875 C 274.617188 162.546875 274.28125 162.402344 274.042969 162.066406 C 271.878906 159.472656 268.472656 160.003906 268.421875 160.003906 C 267.75 160.144531 267.078125 159.617188 266.984375 158.945312 C 266.886719 158.273438 267.367188 157.601562 268.039062 157.507812 C 268.230469 157.457031 272.9375 156.785156 276.011719 160.433594 C 276.441406 160.960938 276.394531 161.777344 275.867188 162.257812 C 275.625 162.449219 275.289062 162.546875 275.003906 162.546875 Z M 275.003906 162.546875 " fill-opacity="1" fill-rule="nonzero"/><path fill="#f4e5e0" d="M 118.363281 144.070312 C 118.363281 144.070312 105.496094 135.480469 95.699219 144.980469 C 85.902344 154.484375 94.164062 187.117188 124.222656 175.742188 Z M 118.363281 144.070312 " fill-opacity="1" fill-rule="nonzero"/><path fill="#252627" d="M 112.503906 179.4375 C 102.039062 179.4375 96.5625 173.054688 94.402344 169.648438 C 89.023438 161.203125 89.214844 149.492188 94.835938 144.070312 C 105.253906 133.945312 118.988281 142.917969 119.132812 143.015625 L 119.566406 143.300781 L 125.664062 176.605469 L 124.65625 176.992188 C 119.996094 178.71875 115.964844 179.4375 112.503906 179.4375 Z M 106.695312 141.765625 C 103.429688 141.765625 99.828125 142.773438 96.613281 145.894531 C 91.90625 150.453125 91.90625 160.867188 96.5625 168.257812 C 101.796875 176.511719 111.304688 178.910156 122.78125 174.925781 L 117.257812 144.835938 C 115.867188 144.023438 111.59375 141.765625 106.695312 141.765625 Z M 106.695312 141.765625 " fill-opacity="1" fill-rule="nonzero"/><path fill="#f4e5e0" d="M 111.738281 166.816406 C 111.738281 166.816406 110.296875 150.355469 100.597656 151.605469 " fill-opacity="1" fill-rule="nonzero"/><path fill="#252627" d="M 111.738281 168.113281 C 111.066406 168.113281 110.535156 167.632812 110.441406 166.960938 C 110.441406 166.863281 109.578125 157.652344 105.207031 154.148438 C 103.910156 153.089844 102.46875 152.707031 100.742188 152.898438 C 100.070312 152.949219 99.398438 152.46875 99.300781 151.796875 C 99.203125 151.074219 99.734375 150.453125 100.40625 150.355469 C 102.804688 150.066406 104.964844 150.644531 106.792969 152.179688 C 112.027344 156.402344 112.9375 166.335938 112.9375 166.769531 C 112.984375 167.488281 112.457031 168.113281 111.785156 168.160156 C 111.832031 168.113281 111.785156 168.113281 111.738281 168.113281 Z M 111.738281 168.113281 " fill-opacity="1" fill-rule="nonzero"/><path fill="#f4e5e0" d="M 109.433594 158.753906 C 109.433594 158.753906 105.304688 158.082031 102.660156 161.25 " fill-opacity="1" fill-rule="nonzero"/><path fill="#252627" d="M 102.660156 162.546875 C 102.375 162.546875 102.085938 162.449219 101.84375 162.257812 C 101.316406 161.824219 101.222656 161.011719 101.703125 160.433594 C 104.773438 156.738281 109.480469 157.457031 109.671875 157.507812 C 110.394531 157.601562 110.824219 158.273438 110.730469 158.945312 C 110.632812 159.667969 109.960938 160.097656 109.289062 160.003906 C 109.144531 159.953125 105.832031 159.523438 103.671875 162.066406 C 103.382812 162.402344 102.996094 162.546875 102.660156 162.546875 Z M 102.660156 162.546875 " fill-opacity="1" fill-rule="nonzero"/><path fill="#f4e5e0" d="M 188.855469 235.632812 C 130.417969 232.226562 115.289062 174.398438 112.9375 126.3125 C 111.113281 89.9375 133.730469 57.785156 165.328125 50.96875 C 180.886719 47.609375 196.828125 47.609375 212.335938 50.96875 C 243.933594 57.785156 266.550781 89.890625 264.726562 126.265625 C 262.371094 174.398438 247.246094 232.226562 188.855469 235.632812 Z M 188.855469 235.632812 " fill-opacity="1" fill-rule="nonzero"/><path fill="#252627" d="M 188.855469 236.882812 L 188.761719 236.882812 C 129.410156 233.425781 114.042969 174.878906 111.640625 126.363281 C 109.816406 89.601562 132.769531 56.679688 165.039062 49.722656 C 180.835938 46.316406 196.828125 46.316406 212.625 49.722656 C 244.894531 56.679688 267.847656 89.601562 266.023438 126.363281 C 263.621094 174.878906 248.253906 233.425781 188.902344 236.882812 Z M 188.855469 49.769531 C 181.078125 49.769531 173.296875 50.585938 165.613281 52.265625 C 134.546875 58.9375 112.457031 90.753906 114.234375 126.265625 C 116.585938 173.726562 131.472656 230.976562 188.855469 234.386719 C 246.285156 230.976562 261.125 173.726562 263.476562 126.265625 C 265.253906 90.753906 243.164062 58.9375 212.097656 52.265625 C 204.367188 50.585938 196.585938 49.769531 188.855469 49.769531 Z M 188.855469 49.769531 " fill-opacity="1" fill-rule="nonzero"/><path fill="#252627" d="M 161.292969 129.144531 C 161.871094 131.113281 157.5 134.136719 151.546875 135.863281 C 145.589844 137.589844 140.308594 137.398438 139.734375 135.429688 C 139.15625 133.464844 143.527344 130.441406 149.480469 128.714844 C 155.433594 126.9375 160.714844 127.128906 161.292969 129.144531 Z M 161.292969 129.144531 " fill-opacity="1" fill-rule="nonzero"/><path fill="#252627" d="M 216.371094 129.144531 C 215.792969 131.113281 220.164062 134.136719 226.117188 135.863281 C 232.074219 137.589844 237.355469 137.398438 237.929688 135.429688 C 238.507812 133.464844 234.136719 130.441406 228.183594 128.714844 C 222.230469 126.9375 216.945312 127.128906 216.371094 129.144531 Z M 216.371094 129.144531 " fill-opacity="1" fill-rule="nonzero"/><path fill="#252627" d="M 156.585938 150.5 C 156.585938 153.859375 153.851562 156.546875 150.535156 156.546875 C 147.175781 156.546875 144.488281 153.8125 144.488281 150.5 C 144.488281 147.140625 147.222656 144.453125 150.535156 144.453125 C 153.851562 144.40625 156.585938 147.140625 156.585938 150.5 Z M 156.585938 150.5 " fill-opacity="1" fill-rule="nonzero"/><path fill="#252627" d="M 233.226562 150.5 C 233.226562 153.859375 230.488281 156.546875 227.175781 156.546875 C 223.8125 156.546875 221.125 153.8125 221.125 150.5 C 221.125 147.140625 223.863281 144.453125 227.175781 144.453125 C 230.488281 144.40625 233.226562 147.140625 233.226562 150.5 Z M 233.226562 150.5 " fill-opacity="1" fill-rule="nonzero"/><path fill="#f4e5e0" d="M 195.144531 168.113281 C 195.144531 168.113281 181.796875 168.113281 182.613281 176.175781 C 183.332031 183.46875 195.144531 180.925781 195.144531 180.925781 " fill-opacity="1" fill-rule="nonzero"/><path fill="#252627" d="M 190.824219 182.652344 C 188.519531 182.652344 185.832031 182.269531 183.863281 180.878906 C 182.375 179.773438 181.507812 178.238281 181.316406 176.320312 C 181.125 174.207031 181.699219 172.382812 183.046875 170.894531 C 186.695312 166.863281 194.808594 166.816406 195.144531 166.816406 C 195.867188 166.816406 196.441406 167.390625 196.441406 168.113281 C 196.441406 168.832031 195.867188 169.40625 195.144531 169.40625 C 195.097656 169.40625 187.800781 169.457031 184.917969 172.625 C 184.054688 173.582031 183.71875 174.6875 183.863281 176.078125 C 183.957031 177.277344 184.484375 178.191406 185.351562 178.8125 C 187.894531 180.683594 193.082031 180.109375 194.859375 179.726562 C 195.53125 179.582031 196.25 180.011719 196.394531 180.734375 C 196.539062 181.40625 196.105469 182.125 195.386719 182.269531 C 195.242188 182.222656 193.226562 182.652344 190.824219 182.652344 Z M 190.824219 182.652344 " fill-opacity="1" fill-rule="nonzero"/><path fill="#f4e5e0" d="M 174.882812 201.03125 C 174.882812 201.03125 176.515625 210.199219 189.144531 210.054688 C 201.195312 209.957031 202.78125 201.03125 202.78125 201.03125 " fill-opacity="1" fill-rule="nonzero"/><path fill="#252627" d="M 188.902344 211.351562 C 175.601562 211.351562 173.683594 201.367188 173.632812 201.273438 C 173.488281 200.601562 173.96875 199.929688 174.691406 199.785156 C 175.363281 199.640625 176.035156 200.121094 176.179688 200.792969 C 176.226562 201.175781 177.859375 208.757812 188.902344 208.757812 C 189 208.757812 189.046875 208.757812 189.144531 208.757812 C 199.898438 208.664062 201.484375 201.082031 201.53125 200.746094 C 201.675781 200.074219 202.300781 199.59375 203.023438 199.738281 C 203.695312 199.882812 204.175781 200.554688 204.03125 201.226562 C 204.03125 201.320312 202.0625 211.207031 189.144531 211.300781 C 189.046875 211.351562 188.953125 211.351562 188.902344 211.351562 Z M 188.902344 211.351562 " fill-opacity="1" fill-rule="nonzero"/><path fill="#f4e5e0" d="M 280.765625 292.691406 C 280.765625 292.691406 276.25 323.359375 280.765625 373.792969 " fill-opacity="1" fill-rule="nonzero"/><path fill="#252627" d="M 280.765625 375.042969 C 280.09375 375.042969 279.5625 374.5625 279.46875 373.890625 C 275.003906 323.886719 279.417969 292.835938 279.46875 292.5 C 279.5625 291.828125 280.1875 291.300781 280.910156 291.445312 C 281.628906 291.539062 282.109375 292.210938 281.964844 292.882812 C 281.917969 293.171875 277.546875 323.980469 281.964844 373.652344 C 282.011719 374.371094 281.484375 374.996094 280.8125 375.042969 C 280.8125 375.042969 280.8125 375.042969 280.765625 375.042969 Z M 280.765625 375.042969 " fill-opacity="1" fill-rule="nonzero"/><path fill="#f4e5e0" d="M 96.898438 292.691406 C 96.898438 292.691406 101.414062 323.359375 96.898438 373.792969 " fill-opacity="1" fill-rule="nonzero"/><path fill="#252627" d="M 96.898438 375.042969 C 96.851562 375.042969 96.804688 375.042969 96.804688 375.042969 C 96.082031 374.996094 95.601562 374.371094 95.652344 373.652344 C 100.070312 323.980469 95.699219 293.171875 95.652344 292.882812 C 95.554688 292.164062 96.035156 291.539062 96.707031 291.445312 C 97.425781 291.347656 98.050781 291.828125 98.148438 292.5 C 98.195312 292.789062 102.613281 323.886719 98.148438 373.890625 C 98.148438 374.5625 97.570312 375.042969 96.898438 375.042969 Z M 96.898438 375.042969 " fill-opacity="1" fill-rule="nonzero"/><path fill="#252627" d="M 303.476562 63.640625 C 296.5625 75.589844 282.15625 72.710938 281.101562 72.519531 C 281.820312 73.285156 290.800781 82.835938 280.1875 84.179688 C 269.09375 85.570312 257.90625 78.371094 257.90625 78.371094 C 259.589844 83.746094 271.304688 91.714844 271.304688 91.714844 L 270.199219 92.480469 C 275.960938 95.503906 258.386719 108.703125 227.894531 86.050781 C 197.355469 63.351562 188.808594 85.425781 188.808594 85.425781 C 188.808594 85.425781 180.308594 63.351562 149.71875 86.050781 C 119.226562 108.703125 101.605469 95.503906 107.367188 92.480469 L 106.3125 91.714844 C 106.3125 91.714844 117.980469 83.746094 119.660156 78.371094 C 119.660156 78.371094 108.472656 85.570312 97.429688 84.179688 C 86.816406 82.835938 95.796875 73.285156 96.515625 72.519531 C 95.457031 72.710938 81.003906 75.589844 74.136719 63.640625 C 73.179688 61.816406 73.996094 59.464844 76.058594 58.554688 C 82.253906 55.769531 95.074219 49.003906 102.179688 38.253906 C 111.738281 23.710938 156.105469 0.246094 188.855469 21.695312 C 221.652344 0.246094 266.023438 23.710938 275.53125 38.253906 C 282.542969 49.003906 295.457031 55.769531 301.652344 58.554688 C 303.667969 59.464844 304.535156 61.816406 303.476562 63.640625 Z M 303.476562 63.640625 " fill-opacity="1" fill-rule="nonzero"/></svg>