<svg xmlns="http://www.w3.org/2000/svg" xmlns:xlink="http://www.w3.org/1999/xlink" width="500" zoomAndPan="magnify" viewBox="0 0 375 374.999991" height="500" preserveAspectRatio="xMidYMid meet" version="1.0"><defs><clipPath id="cba9ab73df"><path d="M 142 3.425781 L 232 3.425781 L 232 64 L 142 64 Z M 142 3.425781 " clip-rule="nonzero"/></clipPath><clipPath id="8270395cf6"><path d="M 37.453125 256 L 337.453125 256 L 337.453125 374.675781 L 37.453125 374.675781 Z M 37.453125 256 " clip-rule="nonzero"/></clipPath><clipPath id="c81caba209"><path d="M 274 291 L 280 291 L 280 374.675781 L 274 374.675781 Z M 274 291 " clip-rule="nonzero"/></clipPath><clipPath id="059b75a1ec"><path d="M 95 291 L 100 291 L 100 374.675781 L 95 374.675781 Z M 95 291 " clip-rule="nonzero"/></clipPath></defs><path fill="#252627" d="M 164.933594 27.734375 C 164.792969 27.734375 164.554688 27.734375 164.316406 27.78125 L 164.316406 27.6875 C 164.316406 27.6875 164.554688 27.6875 164.933594 27.734375 Z M 164.933594 27.734375 " fill-opacity="1" fill-rule="nonzero"/><path fill="#252627" d="M 165.648438 27.6875 L 165.648438 27.78125 C 165.410156 27.734375 165.171875 27.734375 165.03125 27.734375 C 165.410156 27.6875 165.648438 27.6875 165.648438 27.6875 Z M 165.648438 27.6875 " fill-opacity="1" fill-rule="nonzero"/><path fill="#252627" d="M 241.046875 183.164062 C 241.046875 183.164062 258.386719 192.46875 264.894531 215.066406 C 271.402344 237.714844 273.398438 193.230469 248.363281 179.507812 " fill-opacity="1" fill-rule="nonzero"/><path fill="#252627" d="M 133.578125 183.164062 C 133.578125 183.164062 116.238281 192.46875 109.730469 215.066406 C 103.21875 237.714844 101.226562 193.230469 126.261719 179.507812 " fill-opacity="1" fill-rule="nonzero"/><g clip-path="url(#cba9ab73df)"><path fill="#252627" d="M 231.78125 33.527344 C 231.78125 50.140625 211.875 63.625 187.3125 63.625 C 162.75 63.625 142.84375 50.140625 142.84375 33.527344 C 142.84375 16.910156 162.75 3.425781 187.3125 3.425781 C 211.875 3.425781 231.78125 16.910156 231.78125 33.527344 Z M 231.78125 33.527344 " fill-opacity="1" fill-rule="nonzero"/></g><path fill="#252627" d="M 254.109375 182.738281 L 120.464844 182.738281 C 99.753906 162.324219 89.539062 100.890625 106.972656 66.140625 C 122.890625 34.378906 177.335938 29.632812 186.597656 29.0625 C 186.835938 29.015625 187.074219 29.015625 187.21875 29.015625 C 187.265625 29.015625 187.265625 29.015625 187.3125 29.015625 C 187.453125 29.015625 187.691406 29.015625 187.929688 29.0625 C 197.195312 29.632812 251.6875 34.378906 267.554688 66.140625 C 285.039062 100.890625 274.917969 162.324219 254.109375 182.738281 Z M 254.109375 182.738281 " fill-opacity="1" fill-rule="nonzero"/><path fill="#f4e5e0" d="M 335.777344 373.109375 L 38.84375 373.109375 C 38.84375 373.109375 47.015625 347.046875 74.335938 304.605469 C 101.605469 262.164062 187.3125 257.9375 187.3125 257.9375 C 187.3125 257.9375 273.019531 262.164062 300.289062 304.605469 C 327.605469 347.046875 335.777344 373.109375 335.777344 373.109375 Z M 335.777344 373.109375 " fill-opacity="1" fill-rule="nonzero"/><path fill="#f4e5e0" d="M 38.84375 373.109375 C 38.84375 373.109375 47.015625 347.046875 74.335938 304.605469 C 101.605469 262.164062 187.3125 257.9375 187.3125 257.9375 C 187.3125 257.9375 273.019531 262.164062 300.289062 304.605469 C 327.605469 347.046875 335.777344 373.109375 335.777344 373.109375 " fill-opacity="1" fill-rule="nonzero"/><g clip-path="url(#8270395cf6)"><path fill="#252627" d="M 38.84375 374.34375 C 38.703125 374.34375 38.609375 374.34375 38.464844 374.296875 C 37.800781 374.105469 37.421875 373.394531 37.65625 372.730469 C 37.753906 372.492188 46.210938 346.003906 73.289062 303.941406 C 100.609375 261.449219 183.75 256.84375 187.265625 256.703125 C 190.921875 256.890625 274.0625 261.449219 301.382812 303.941406 C 328.460938 346.050781 336.917969 372.492188 337.015625 372.730469 C 337.203125 373.394531 336.871094 374.105469 336.207031 374.296875 C 335.542969 374.535156 334.828125 374.15625 334.636719 373.488281 C 334.542969 373.253906 326.183594 347.046875 299.292969 305.269531 C 272.6875 263.871094 188.167969 259.21875 187.3125 259.171875 C 186.597656 259.21875 102.082031 263.871094 75.476562 305.269531 C 48.585938 347.046875 40.222656 373.203125 40.128906 373.488281 C 39.890625 374.011719 39.367188 374.34375 38.84375 374.34375 Z M 38.84375 374.34375 " fill-opacity="1" fill-rule="nonzero"/></g><path fill="#252627" d="M 220.140625 312.34375 C 211.921875 302.230469 200.1875 298.289062 187.929688 301.472656 C 187.691406 301.519531 187.503906 301.660156 187.359375 301.757812 C 187.167969 301.660156 186.980469 301.519531 186.789062 301.472656 C 174.53125 298.289062 162.796875 302.230469 154.578125 312.34375 C 146.929688 321.742188 143.839844 334.988281 147.546875 342.535156 C 149.398438 346.335938 152.820312 348.421875 157.191406 348.421875 C 157.332031 348.421875 157.476562 348.421875 157.617188 348.421875 C 167.5 348.136719 174.675781 339.449219 179.617188 329.859375 C 178.949219 339.023438 178.996094 350.179688 181.039062 361.621094 C 181.230469 362.761719 182.226562 363.566406 183.367188 363.566406 C 183.511719 363.566406 183.652344 363.566406 183.796875 363.519531 C 185.078125 363.28125 185.933594 362.046875 185.695312 360.765625 C 181.230469 335.984375 186.789062 311.820312 187.40625 309.304688 C 188.023438 311.820312 193.582031 335.984375 189.117188 360.765625 C 188.878906 362.046875 189.734375 363.28125 191.019531 363.519531 C 191.160156 363.519531 191.304688 363.566406 191.445312 363.566406 C 192.585938 363.566406 193.582031 362.761719 193.773438 361.621094 C 195.816406 350.179688 195.863281 339.023438 195.199219 329.8125 C 200.140625 339.402344 207.359375 348.089844 217.242188 348.421875 C 217.386719 348.421875 217.527344 348.421875 217.671875 348.421875 C 221.992188 348.421875 225.414062 346.335938 227.316406 342.535156 C 230.878906 335.035156 227.789062 321.742188 220.140625 312.34375 Z M 157.332031 343.628906 C 154.578125 343.769531 152.820312 342.679688 151.679688 340.398438 C 149.160156 335.273438 150.871094 324.210938 158.140625 315.332031 C 162.035156 310.585938 170.304688 303.226562 183.226562 305.601562 C 181.183594 314.050781 172.871094 343.199219 157.332031 343.628906 Z M 222.894531 340.449219 C 221.804688 342.679688 220.046875 343.816406 217.242188 343.675781 C 201.707031 343.199219 193.394531 314.097656 191.304688 305.648438 C 204.226562 303.273438 212.492188 310.632812 216.386719 315.382812 C 223.703125 324.257812 225.460938 335.273438 222.894531 340.449219 Z M 222.894531 340.449219 " fill-opacity="1" fill-rule="nonzero"/><path fill="#f4e5e0" d="M 209.640625 266.71875 C 209.640625 266.71875 209.878906 286.421875 187.3125 301.28125 C 164.746094 286.421875 164.984375 266.71875 164.984375 266.71875 C 170.777344 248.871094 167.738281 214.59375 167.738281 214.59375 L 206.886719 214.59375 C 206.886719 214.59375 203.84375 248.871094 209.640625 266.71875 Z M 209.640625 266.71875 " fill-opacity="1" fill-rule="nonzero"/><path fill="#252627" d="M 187.3125 302.800781 L 186.597656 302.324219 C 163.699219 287.277344 163.699219 267.527344 163.699219 266.71875 L 163.746094 266.339844 C 169.402344 248.917969 166.457031 215.066406 166.457031 214.6875 L 166.3125 213.3125 L 208.214844 213.3125 L 208.121094 214.6875 C 208.074219 215.019531 205.175781 248.917969 210.828125 266.339844 L 210.875 266.71875 C 210.875 267.527344 210.875 287.277344 187.976562 302.324219 Z M 166.21875 266.910156 C 166.265625 268.855469 167.40625 286.277344 187.265625 299.761719 C 207.21875 286.230469 208.261719 268.855469 208.3125 266.910156 C 203.179688 250.816406 204.9375 222.472656 205.460938 215.875 L 169.070312 215.875 C 169.589844 222.472656 171.394531 250.769531 166.21875 266.910156 Z M 166.21875 266.910156 " fill-opacity="1" fill-rule="nonzero"/><path fill="#f4e5e0" d="M 257.007812 145.851562 C 257.007812 145.851562 269.742188 137.351562 279.433594 146.75 C 289.125 156.152344 280.953125 188.433594 251.210938 177.183594 Z M 257.007812 145.851562 " fill-opacity="1" fill-rule="nonzero"/><path fill="#252627" d="M 262.851562 180.792969 C 259.429688 180.792969 255.394531 180.078125 250.832031 178.371094 L 249.835938 177.988281 L 255.867188 145.042969 L 256.296875 144.757812 C 256.4375 144.664062 269.976562 135.832031 280.335938 145.800781 C 285.847656 151.167969 286.035156 162.75 280.761719 171.105469 C 278.578125 174.476562 273.207031 180.792969 262.851562 180.792969 Z M 252.683594 176.375 C 264.039062 180.316406 273.445312 177.941406 278.625 169.777344 C 283.234375 162.464844 283.234375 152.164062 278.578125 147.652344 C 270.691406 140.011719 260.382812 145.328125 258.148438 146.609375 Z M 252.683594 176.375 " fill-opacity="1" fill-rule="nonzero"/><path fill="#f4e5e0" d="M 263.5625 168.351562 C 263.5625 168.351562 264.988281 152.070312 274.585938 153.304688 " fill-opacity="1" fill-rule="nonzero"/><path fill="#252627" d="M 263.5625 169.632812 C 263.515625 169.632812 263.46875 169.632812 263.46875 169.632812 C 262.757812 169.585938 262.28125 168.96875 262.328125 168.257812 C 262.375 167.832031 263.28125 158.003906 268.410156 153.824219 C 270.261719 152.355469 272.402344 151.738281 274.730469 152.070312 C 275.441406 152.164062 275.917969 152.78125 275.820312 153.492188 C 275.726562 154.207031 275.109375 154.632812 274.398438 154.585938 C 272.734375 154.394531 271.261719 154.773438 269.976562 155.820312 C 265.65625 159.285156 264.800781 168.398438 264.800781 168.496094 C 264.753906 169.113281 264.230469 169.632812 263.5625 169.632812 Z M 263.5625 169.632812 " fill-opacity="1" fill-rule="nonzero"/><path fill="#f4e5e0" d="M 265.84375 160.378906 C 265.84375 160.378906 269.929688 159.710938 272.542969 162.847656 " fill-opacity="1" fill-rule="nonzero"/><path fill="#252627" d="M 272.542969 164.128906 C 272.164062 164.128906 271.832031 163.984375 271.59375 163.652344 C 269.457031 161.089844 266.082031 161.613281 266.035156 161.613281 C 265.371094 161.753906 264.703125 161.230469 264.609375 160.566406 C 264.515625 159.902344 264.988281 159.238281 265.65625 159.144531 C 265.84375 159.09375 270.5 158.429688 273.542969 162.039062 C 273.96875 162.5625 273.921875 163.367188 273.398438 163.84375 C 273.160156 164.03125 272.875 164.128906 272.542969 164.128906 Z M 272.542969 164.128906 " fill-opacity="1" fill-rule="nonzero"/><path fill="#f4e5e0" d="M 117.566406 145.851562 C 117.566406 145.851562 104.835938 137.351562 95.144531 146.75 C 85.453125 156.152344 93.625 188.433594 123.363281 177.183594 Z M 117.566406 145.851562 " fill-opacity="1" fill-rule="nonzero"/><path fill="#252627" d="M 111.773438 180.792969 C 101.414062 180.792969 96 174.476562 93.859375 171.105469 C 88.539062 162.75 88.730469 151.167969 94.289062 145.800781 C 104.597656 135.785156 118.1875 144.664062 118.328125 144.757812 L 118.757812 145.042969 L 124.789062 177.988281 L 123.792969 178.371094 C 119.183594 180.125 115.191406 180.792969 111.773438 180.792969 Z M 106.023438 143.570312 C 102.792969 143.570312 99.230469 144.566406 96.046875 147.652344 C 91.390625 152.164062 91.390625 162.464844 96 169.777344 C 101.175781 177.941406 110.585938 180.363281 121.9375 176.375 L 116.476562 146.609375 C 115.097656 145.800781 110.871094 143.570312 106.023438 143.570312 Z M 106.023438 143.570312 " fill-opacity="1" fill-rule="nonzero"/><path fill="#f4e5e0" d="M 111.011719 168.351562 C 111.011719 168.351562 109.585938 152.070312 99.988281 153.304688 " fill-opacity="1" fill-rule="nonzero"/><path fill="#252627" d="M 111.011719 169.632812 C 110.347656 169.632812 109.824219 169.160156 109.730469 168.496094 C 109.730469 168.398438 108.875 159.285156 104.550781 155.820312 C 103.269531 154.773438 101.796875 154.394531 100.132812 154.585938 C 99.417969 154.632812 98.800781 154.15625 98.707031 153.492188 C 98.613281 152.78125 99.085938 152.164062 99.800781 152.070312 C 102.175781 151.785156 104.3125 152.355469 106.117188 153.824219 C 111.296875 158.003906 112.199219 167.832031 112.199219 168.257812 C 112.246094 168.96875 111.726562 169.585938 111.058594 169.632812 C 111.105469 169.632812 111.058594 169.632812 111.011719 169.632812 Z M 111.011719 169.632812 " fill-opacity="1" fill-rule="nonzero"/><path fill="#f4e5e0" d="M 108.730469 160.378906 C 108.730469 160.378906 104.644531 159.710938 102.03125 162.847656 " fill-opacity="1" fill-rule="nonzero"/><path fill="#252627" d="M 102.03125 164.128906 C 101.746094 164.128906 101.460938 164.03125 101.226562 163.84375 C 100.703125 163.414062 100.609375 162.609375 101.082031 162.039062 C 104.125 158.382812 108.777344 159.09375 108.96875 159.144531 C 109.683594 159.238281 110.109375 159.902344 110.015625 160.566406 C 109.917969 161.277344 109.207031 161.753906 108.542969 161.613281 C 108.351562 161.613281 105.074219 161.136719 102.984375 163.652344 C 102.746094 163.9375 102.367188 164.128906 102.03125 164.128906 Z M 102.03125 164.128906 " fill-opacity="1" fill-rule="nonzero"/><path fill="#f4e5e0" d="M 187.3125 236.429688 C 129.539062 233.058594 114.574219 175.855469 112.199219 128.285156 C 110.394531 92.296875 132.769531 60.492188 164.03125 53.796875 C 179.425781 50.472656 195.199219 50.472656 210.542969 53.796875 C 241.804688 60.539062 264.183594 92.296875 262.375 128.285156 C 260.046875 175.855469 245.082031 233.058594 187.3125 236.429688 Z M 187.3125 236.429688 " fill-opacity="1" fill-rule="nonzero"/><path fill="#252627" d="M 187.3125 237.664062 L 187.21875 237.664062 C 128.496094 234.246094 113.292969 176.328125 110.917969 128.332031 C 109.113281 91.964844 131.820312 59.398438 163.746094 52.515625 C 179.378906 49.144531 195.199219 49.144531 210.828125 52.515625 C 242.753906 59.398438 265.464844 91.964844 263.660156 128.332031 C 261.285156 176.328125 246.128906 234.246094 187.359375 237.664062 Z M 187.3125 52.5625 C 179.617188 52.5625 171.964844 53.371094 164.316406 55.03125 C 133.578125 61.628906 111.726562 93.105469 113.484375 128.238281 C 115.808594 175.1875 130.539062 231.824219 187.3125 235.195312 C 244.132812 231.824219 258.8125 175.1875 261.140625 128.238281 C 262.898438 93.105469 241.046875 61.628906 210.304688 55.03125 C 202.65625 53.371094 194.960938 52.5625 187.3125 52.5625 Z M 187.3125 52.5625 " fill-opacity="1" fill-rule="nonzero"/><path fill="#252627" d="M 160.042969 131.039062 C 160.613281 132.984375 156.289062 135.976562 150.398438 137.683594 C 144.507812 139.394531 139.28125 139.203125 138.710938 137.257812 C 138.140625 135.3125 142.464844 132.320312 148.355469 130.609375 C 154.246094 128.902344 159.472656 129.089844 160.042969 131.039062 Z M 160.042969 131.039062 " fill-opacity="1" fill-rule="nonzero"/><path fill="#252627" d="M 214.535156 131.039062 C 213.964844 132.984375 218.289062 135.976562 224.179688 137.683594 C 230.070312 139.394531 235.296875 139.203125 235.867188 137.257812 C 236.4375 135.3125 232.113281 132.320312 226.222656 130.609375 C 220.332031 128.902344 215.105469 129.089844 214.535156 131.039062 Z M 214.535156 131.039062 " fill-opacity="1" fill-rule="nonzero"/><path fill="#252627" d="M 155.386719 152.210938 C 155.386719 155.535156 152.675781 158.191406 149.398438 158.191406 C 146.074219 158.191406 143.414062 155.488281 143.414062 152.210938 C 143.414062 148.886719 146.121094 146.230469 149.398438 146.230469 C 152.726562 146.183594 155.386719 148.886719 155.386719 152.210938 Z M 155.386719 152.210938 " fill-opacity="1" fill-rule="nonzero"/><path fill="#252627" d="M 231.210938 152.210938 C 231.210938 155.535156 228.503906 158.191406 225.222656 158.191406 C 221.945312 158.191406 219.238281 155.488281 219.238281 152.210938 C 219.238281 148.886719 221.945312 146.230469 225.222656 146.230469 C 228.503906 146.230469 231.210938 148.886719 231.210938 152.210938 Z M 231.210938 152.210938 " fill-opacity="1" fill-rule="nonzero"/><path fill="#f4e5e0" d="M 193.535156 169.632812 C 193.535156 169.632812 180.328125 169.632812 181.136719 177.609375 C 181.847656 184.828125 193.535156 182.308594 193.535156 182.308594 " fill-opacity="1" fill-rule="nonzero"/><path fill="#252627" d="M 189.261719 183.972656 C 186.980469 183.972656 184.320312 183.59375 182.371094 182.214844 C 180.898438 181.125 180.042969 179.605469 179.851562 177.707031 C 179.664062 175.617188 180.234375 173.8125 181.5625 172.339844 C 185.175781 168.351562 193.203125 168.304688 193.535156 168.304688 C 194.25 168.304688 194.820312 168.875 194.820312 169.585938 C 194.820312 170.300781 194.25 170.867188 193.535156 170.867188 C 193.441406 170.867188 186.265625 170.917969 183.417969 174.050781 C 182.5625 175 182.226562 176.089844 182.371094 177.46875 C 182.511719 178.65625 182.988281 179.558594 183.84375 180.175781 C 186.363281 182.027344 191.492188 181.457031 193.25 181.074219 C 193.914062 180.933594 194.628906 181.359375 194.769531 182.074219 C 194.914062 182.738281 194.484375 183.449219 193.773438 183.59375 C 193.628906 183.59375 191.683594 183.972656 189.261719 183.972656 Z M 189.261719 183.972656 " fill-opacity="1" fill-rule="nonzero"/><path fill="#f4e5e0" d="M 173.488281 202.203125 C 173.488281 202.203125 175.101562 211.269531 187.597656 211.128906 C 199.523438 211.03125 201.089844 202.203125 201.089844 202.203125 " fill-opacity="1" fill-rule="nonzero"/><path fill="#252627" d="M 187.359375 212.410156 C 174.199219 212.410156 172.300781 202.535156 172.25 202.4375 C 172.109375 201.773438 172.585938 201.109375 173.296875 200.96875 C 174.007812 200.824219 174.628906 201.300781 174.769531 201.964844 C 174.863281 202.34375 176.433594 209.84375 187.359375 209.84375 C 187.453125 209.84375 187.503906 209.84375 187.597656 209.84375 C 198.238281 209.75 199.808594 202.25 199.855469 201.964844 C 199.996094 201.300781 200.660156 200.824219 201.328125 200.96875 C 201.992188 201.109375 202.46875 201.773438 202.324219 202.4375 C 202.324219 202.535156 200.378906 212.3125 187.597656 212.410156 C 187.503906 212.410156 187.453125 212.410156 187.359375 212.410156 Z M 187.359375 212.410156 " fill-opacity="1" fill-rule="nonzero"/><path fill="#f4e5e0" d="M 278.246094 292.878906 C 278.246094 292.878906 273.777344 323.214844 278.246094 373.109375 " fill-opacity="1" fill-rule="nonzero"/><g clip-path="url(#c81caba209)"><path fill="#252627" d="M 278.246094 374.34375 C 277.578125 374.34375 277.058594 373.871094 276.960938 373.203125 C 272.542969 323.738281 276.914062 293.019531 276.960938 292.6875 C 277.058594 292.023438 277.675781 291.5 278.386719 291.644531 C 279.101562 291.738281 279.574219 292.402344 279.433594 293.066406 C 279.386719 293.351562 275.0625 323.832031 279.433594 372.96875 C 279.480469 373.679688 278.957031 374.296875 278.292969 374.34375 C 278.292969 374.34375 278.292969 374.34375 278.246094 374.34375 Z M 278.246094 374.34375 " fill-opacity="1" fill-rule="nonzero"/></g><path fill="#f4e5e0" d="M 96.332031 292.878906 C 96.332031 292.878906 100.796875 323.214844 96.332031 373.109375 " fill-opacity="1" fill-rule="nonzero"/><g clip-path="url(#059b75a1ec)"><path fill="#252627" d="M 96.332031 374.34375 C 96.285156 374.34375 96.238281 374.34375 96.238281 374.34375 C 95.523438 374.296875 95.050781 373.679688 95.097656 372.96875 C 99.46875 323.832031 95.144531 293.351562 95.097656 293.066406 C 95 292.355469 95.476562 291.738281 96.1875 291.644531 C 96.855469 291.5 97.519531 292.023438 97.613281 292.6875 C 97.660156 292.972656 102.03125 323.738281 97.613281 373.203125 C 97.566406 373.871094 96.996094 374.34375 96.332031 374.34375 Z M 96.332031 374.34375 " fill-opacity="1" fill-rule="nonzero"/></g><path fill="#252627" d="M 155.386719 75.445312 C 155.386719 75.445312 189.546875 122.160156 265.941406 129.089844 C 265.941406 129.089844 274.730469 95.480469 246.9375 66.234375 C 219.144531 36.992188 159.1875 46.152344 159.1875 46.152344 C 159.1875 46.152344 102.507812 42.117188 107.640625 132.746094 C 107.640625 132.746094 147.355469 130.992188 155.386719 75.445312 Z M 155.386719 75.445312 " fill-opacity="1" fill-rule="nonzero"/><path fill="#252627" d="M 163.605469 272.320312 C 163.605469 272.320312 168.308594 255.183594 168.355469 243.457031 L 159.710938 246.78125 C 159.710938 246.78125 159.660156 262.019531 163.605469 272.320312 Z M 163.605469 272.320312 " fill-opacity="1" fill-rule="nonzero"/><path fill="#252627" d="M 210.734375 272.320312 C 210.734375 272.320312 206.03125 255.183594 205.984375 243.457031 L 214.628906 246.78125 C 214.628906 246.78125 214.726562 262.019531 210.734375 272.320312 Z M 210.734375 272.320312 " fill-opacity="1" fill-rule="nonzero"/><path fill="#f4e5e0" d="M 187.3125 303.511719 C 174.246094 296.34375 175.53125 325.824219 163.792969 321.363281 C 152.058594 316.949219 136.90625 271.703125 140.515625 256.941406 C 144.171875 242.175781 168.546875 237.761719 168.546875 237.761719 L 168.308594 247.066406 C 164.554688 246.828125 162.988281 252.289062 162.65625 253.617188 C 162.605469 253.808594 162.605469 253.902344 162.605469 253.902344 C 162.605469 254.234375 162.558594 254.566406 162.558594 254.898438 C 161.988281 271.039062 187.3125 303.511719 187.3125 303.511719 Z M 187.3125 303.511719 " fill-opacity="1" fill-rule="nonzero"/><path fill="#252627" d="M 166.171875 323.121094 C 165.316406 323.121094 164.363281 322.929688 163.320312 322.550781 C 150.683594 317.800781 135.574219 271.753906 139.28125 256.65625 C 143.082031 241.273438 167.3125 236.714844 168.308594 236.527344 C 168.6875 236.480469 169.070312 236.574219 169.351562 236.8125 C 169.636719 237.046875 169.828125 237.429688 169.78125 237.808594 L 169.542969 247.113281 C 169.542969 247.445312 169.402344 247.777344 169.117188 248.015625 C 168.878906 248.253906 168.546875 248.394531 168.164062 248.347656 C 168.117188 248.347656 168.070312 248.347656 168.023438 248.347656 C 165.363281 248.347656 164.078125 253 163.84375 253.949219 C 163.84375 254.140625 163.792969 254.328125 163.792969 254.519531 L 163.792969 254.945312 C 163.226562 270.46875 188.023438 302.46875 188.261719 302.800781 C 188.640625 303.273438 188.59375 303.941406 188.214844 304.414062 C 187.835938 304.890625 187.167969 304.984375 186.648438 304.699219 C 184.9375 303.75 183.511719 303.511719 182.226562 303.890625 C 179.519531 304.792969 177.621094 308.828125 175.765625 312.769531 C 173.535156 317.660156 170.96875 323.121094 166.171875 323.121094 Z M 167.214844 239.375 C 161.941406 240.609375 144.601562 245.546875 141.703125 257.273438 C 138.042969 272.179688 153.816406 316.28125 164.175781 320.222656 C 168.402344 321.789062 170.492188 318.085938 173.488281 311.679688 C 175.578125 307.261719 177.667969 302.707031 181.46875 301.472656 C 182.226562 301.234375 183.035156 301.140625 183.890625 301.1875 C 177.523438 292.546875 160.753906 268.476562 161.277344 254.898438 C 161.277344 254.757812 161.277344 254.566406 161.324219 254.375 L 161.324219 253.949219 C 161.324219 253.855469 161.371094 253.425781 161.417969 253.332031 C 161.847656 251.671875 163.367188 246.6875 167.074219 245.925781 Z M 167.214844 239.375 " fill-opacity="1" fill-rule="nonzero"/><path fill="#f4e5e0" d="M 187.3125 303.511719 C 200.378906 296.34375 199.09375 325.824219 210.828125 321.363281 C 222.5625 316.949219 237.71875 271.703125 234.109375 256.941406 C 230.449219 242.175781 206.078125 237.761719 206.078125 237.761719 L 206.316406 247.066406 C 210.070312 246.828125 211.636719 252.289062 211.96875 253.617188 C 212.015625 253.808594 212.015625 253.902344 212.015625 253.902344 C 212.015625 254.234375 212.0625 254.566406 212.0625 254.898438 C 212.632812 271.039062 187.3125 303.511719 187.3125 303.511719 Z M 187.3125 303.511719 " fill-opacity="1" fill-rule="nonzero"/><path fill="#252627" d="M 208.453125 323.121094 C 203.65625 323.121094 201.089844 317.660156 198.808594 312.722656 C 196.957031 308.78125 195.054688 304.746094 192.347656 303.84375 C 191.113281 303.417969 189.640625 303.703125 187.929688 304.652344 C 187.40625 304.9375 186.742188 304.839844 186.363281 304.367188 C 185.980469 303.890625 185.933594 303.226562 186.3125 302.753906 C 186.550781 302.421875 211.351562 270.46875 210.78125 254.945312 L 210.78125 254.472656 C 210.78125 254.28125 210.734375 254.089844 210.734375 253.902344 C 210.496094 252.953125 209.167969 248.300781 206.503906 248.300781 C 206.457031 248.300781 206.363281 248.300781 206.269531 248.300781 C 205.9375 248.300781 205.652344 248.15625 205.414062 247.96875 C 205.175781 247.730469 205.03125 247.398438 204.984375 247.066406 L 204.746094 237.761719 C 204.746094 237.378906 204.890625 237 205.175781 236.761719 C 205.460938 236.527344 205.839844 236.429688 206.222656 236.480469 C 207.265625 236.667969 231.449219 241.226562 235.25 256.609375 C 238.953125 271.753906 223.847656 317.753906 211.160156 322.503906 C 210.257812 322.976562 209.308594 323.121094 208.453125 323.121094 Z M 191.113281 301.140625 C 191.777344 301.140625 192.441406 301.234375 193.109375 301.472656 C 196.863281 302.707031 199 307.261719 201.089844 311.679688 C 204.082031 318.039062 206.171875 321.835938 210.402344 320.222656 C 220.757812 316.332031 236.53125 272.179688 232.921875 257.273438 C 230.023438 245.546875 212.730469 240.609375 207.410156 239.375 L 207.597656 245.925781 C 211.257812 246.6875 212.824219 251.671875 213.253906 253.332031 C 213.253906 253.425781 213.347656 253.808594 213.347656 253.949219 L 213.347656 254.375 C 213.347656 254.566406 213.394531 254.757812 213.394531 254.945312 C 213.871094 268.476562 197.144531 292.546875 190.78125 301.1875 C 190.828125 301.140625 190.96875 301.140625 191.113281 301.140625 Z M 191.113281 301.140625 " fill-opacity="1" fill-rule="nonzero"/></svg>