<svg xmlns="http://www.w3.org/2000/svg" xmlns:xlink="http://www.w3.org/1999/xlink" width="500" zoomAndPan="magnify" viewBox="0 0 375 374.999991" height="500" preserveAspectRatio="xMidYMid meet" version="1.0"><defs><clipPath id="4ea343d4a1"><path d="M 30.640625 259 L 344 259 L 344 375 L 30.640625 375 Z M 30.640625 259 " clip-rule="nonzero"/></clipPath></defs><path stroke-linecap="round" transform="matrix(4.968304, 0, 0, 4.970127, 30.638823, 0.523598)" fill="none" stroke-linejoin="round" d="M 11.620116 59.709835 C 11.620116 59.709835 12.559666 66.100359 11.620116 76.610025 " stroke="#ffffff" stroke-width="0.533" stroke-opacity="1" stroke-miterlimit="10"/><path fill="#252627" d="M 111.621094 145.898438 C 111.621094 145.898438 96.566406 128.007812 101.289062 85.214844 C 106.007812 42.371094 136.015625 28.207031 161.949219 21.84375 C 187.886719 15.484375 186.542969 1.46875 187.886719 0.621094 C 189.226562 -0.222656 194.292969 8.375 193.449219 16.625 C 193.449219 16.625 197.824219 12.601562 197.824219 6.835938 C 197.824219 1.070312 205.722656 10.015625 205.421875 18.8125 C 205.421875 18.8125 255.304688 21.148438 266.433594 61.65625 C 277.5625 102.113281 264.199219 145.949219 264.199219 145.949219 C 264.199219 145.949219 248.894531 58.277344 197.027344 56.238281 C 145.109375 54.199219 105.460938 88.59375 111.621094 145.898438 Z M 111.621094 145.898438 " fill-opacity="1" fill-rule="nonzero"/><path fill="#f4e5e0" d="M 342.5 381.285156 L 31.980469 381.285156 C 31.980469 381.285156 40.527344 354 69.09375 309.566406 C 97.613281 265.132812 187.238281 260.710938 187.238281 260.710938 C 187.238281 260.710938 276.867188 265.132812 305.386719 309.566406 C 333.953125 354 342.5 381.285156 342.5 381.285156 Z M 342.5 381.285156 " fill-opacity="1" fill-rule="nonzero"/><path fill="#252627" d="M 31.980469 381.285156 C 31.980469 381.285156 40.527344 354 69.09375 309.566406 C 97.613281 265.132812 187.238281 260.710938 187.238281 260.710938 C 187.238281 260.710938 276.867188 265.132812 305.386719 309.566406 C 333.953125 354 342.5 381.285156 342.5 381.285156 " fill-opacity="1" fill-rule="nonzero"/><g clip-path="url(#4ea343d4a1)"><path stroke-linecap="round" transform="matrix(4.968304, 0, 0, 4.970127, 30.638823, 0.523598)" fill="none" stroke-linejoin="round" d="M 0.270041 76.610025 C 0.270041 76.610025 1.990321 71.120195 7.740051 62.180062 C 13.480346 53.23993 31.5197 52.350239 31.5197 52.350239 C 31.5197 52.350239 49.55984 53.23993 55.300135 62.180062 C 61.049865 71.120195 62.770145 76.610025 62.770145 76.610025 " stroke="#000000" stroke-width="0.533" stroke-opacity="1" stroke-miterlimit="10"/></g><path fill="#f4e5e0" d="M 210.589844 269.90625 C 210.589844 269.90625 210.839844 290.53125 187.238281 306.085938 C 163.640625 290.53125 163.890625 269.90625 163.890625 269.90625 C 169.949219 251.21875 166.769531 215.332031 166.769531 215.332031 L 207.710938 215.332031 C 207.710938 215.332031 204.53125 251.21875 210.589844 269.90625 Z M 210.589844 269.90625 " fill-opacity="1" fill-rule="nonzero"/><path fill="#252627" d="M 187.238281 307.675781 L 186.496094 307.179688 C 162.546875 291.425781 162.546875 270.75 162.546875 269.90625 L 162.597656 269.507812 C 168.507812 251.265625 165.429688 215.828125 165.429688 215.433594 L 165.28125 213.992188 L 209.101562 213.992188 L 208.953125 215.433594 C 208.902344 215.78125 205.871094 251.265625 211.78125 269.507812 L 211.832031 269.90625 C 211.832031 270.75 211.832031 291.425781 187.886719 307.179688 Z M 165.179688 270.101562 C 165.230469 272.140625 166.421875 290.382812 187.191406 304.496094 C 208.058594 290.332031 209.148438 272.140625 209.199219 270.101562 C 203.832031 253.253906 205.671875 223.582031 206.21875 216.675781 L 168.160156 216.675781 C 168.707031 223.632812 170.546875 253.253906 165.179688 270.101562 Z M 165.179688 270.101562 " fill-opacity="1" fill-rule="nonzero"/><path fill="#f4e5e0" d="M 260.125 143.363281 C 260.125 143.363281 273.441406 134.46875 283.574219 144.308594 C 293.710938 154.148438 285.164062 187.945312 254.0625 176.167969 Z M 260.125 143.363281 " fill-opacity="1" fill-rule="nonzero"/><path fill="#252627" d="M 266.234375 179.996094 C 262.609375 179.996094 258.4375 179.25 253.617188 177.460938 L 252.574219 177.0625 L 258.882812 142.570312 L 259.328125 142.273438 C 259.480469 142.171875 273.636719 132.929688 284.46875 143.363281 C 290.234375 148.980469 290.429688 161.109375 284.917969 169.855469 C 282.679688 173.382812 277.066406 179.996094 266.234375 179.996094 Z M 255.605469 175.324219 C 267.429688 179.449219 277.265625 176.964844 282.730469 168.414062 C 287.550781 160.808594 287.550781 149.976562 282.679688 145.253906 C 274.433594 137.25 263.652344 142.816406 261.316406 144.160156 Z M 255.605469 175.324219 " fill-opacity="1" fill-rule="nonzero"/><path fill="#f4e5e0" d="M 266.980469 166.921875 C 266.980469 166.921875 268.472656 149.875 278.507812 151.167969 " fill-opacity="1" fill-rule="nonzero"/><path fill="#252627" d="M 266.980469 168.265625 C 266.929688 168.265625 266.882812 168.265625 266.882812 168.265625 C 266.136719 168.214844 265.640625 167.570312 265.6875 166.824219 C 265.738281 166.375 266.683594 156.089844 272.046875 151.714844 C 273.988281 150.175781 276.171875 149.527344 278.65625 149.875 C 279.402344 149.976562 279.898438 150.621094 279.800781 151.367188 C 279.699219 152.113281 279.054688 152.558594 278.308594 152.511719 C 276.570312 152.3125 275.03125 152.707031 273.6875 153.800781 C 269.167969 157.429688 268.273438 166.972656 268.273438 167.074219 C 268.222656 167.769531 267.675781 168.265625 266.980469 168.265625 Z M 266.980469 168.265625 " fill-opacity="1" fill-rule="nonzero"/><path fill="#f4e5e0" d="M 269.367188 158.574219 C 269.367188 158.574219 273.636719 157.878906 276.371094 161.15625 " fill-opacity="1" fill-rule="nonzero"/><path fill="#252627" d="M 276.421875 162.5 C 276.023438 162.5 275.675781 162.351562 275.425781 162.003906 C 273.191406 159.367188 269.761719 159.867188 269.613281 159.867188 C 268.917969 159.964844 268.222656 159.46875 268.125 158.773438 C 268.023438 158.078125 268.519531 157.378906 269.214844 157.28125 C 269.414062 157.230469 274.285156 156.535156 277.464844 160.3125 C 277.910156 160.859375 277.863281 161.703125 277.316406 162.203125 C 277.015625 162.402344 276.71875 162.5 276.421875 162.5 Z M 276.421875 162.5 " fill-opacity="1" fill-rule="nonzero"/><path fill="#f4e5e0" d="M 114.304688 143.363281 C 114.304688 143.363281 100.988281 134.46875 90.855469 144.308594 C 80.71875 154.148438 89.265625 187.945312 120.367188 176.167969 Z M 114.304688 143.363281 " fill-opacity="1" fill-rule="nonzero"/><path fill="#252627" d="M 108.242188 179.996094 C 97.414062 179.996094 91.75 173.382812 89.511719 169.855469 C 83.949219 161.109375 84.148438 148.980469 89.960938 143.363281 C 100.742188 132.929688 114.949219 142.171875 115.101562 142.273438 L 115.546875 142.570312 L 121.855469 177.0625 L 120.8125 177.460938 C 115.996094 179.25 111.820312 179.996094 108.242188 179.996094 Z M 102.230469 140.980469 C 98.855469 140.980469 95.128906 142.023438 91.796875 145.253906 C 86.929688 149.976562 86.929688 160.761719 91.75 168.414062 C 97.164062 176.964844 107 179.496094 118.875 175.324219 L 113.113281 144.160156 C 111.722656 143.316406 107.300781 140.980469 102.230469 140.980469 Z M 102.230469 140.980469 " fill-opacity="1" fill-rule="nonzero"/><path fill="#f4e5e0" d="M 107.449219 166.921875 C 107.449219 166.921875 105.957031 149.875 95.921875 151.167969 " fill-opacity="1" fill-rule="nonzero"/><path fill="#252627" d="M 107.449219 168.265625 C 106.753906 168.265625 106.207031 167.769531 106.105469 167.074219 C 106.105469 166.972656 105.214844 157.429688 100.691406 153.800781 C 99.351562 152.707031 97.808594 152.3125 96.070312 152.511719 C 95.324219 152.558594 94.679688 152.0625 94.582031 151.367188 C 94.480469 150.621094 94.976562 149.976562 95.722656 149.875 C 98.207031 149.578125 100.445312 150.175781 102.332031 151.714844 C 107.695312 156.089844 108.691406 166.375 108.691406 166.824219 C 108.742188 167.570312 108.195312 168.214844 107.5 168.265625 C 107.546875 168.265625 107.5 168.265625 107.449219 168.265625 Z M 107.449219 168.265625 " fill-opacity="1" fill-rule="nonzero"/><path fill="#f4e5e0" d="M 105.0625 158.574219 C 105.0625 158.574219 100.792969 157.878906 98.058594 161.15625 " fill-opacity="1" fill-rule="nonzero"/><path fill="#252627" d="M 98.058594 162.5 C 97.761719 162.5 97.460938 162.402344 97.214844 162.203125 C 96.667969 161.753906 96.566406 160.910156 97.066406 160.3125 C 100.246094 156.484375 105.113281 157.230469 105.3125 157.28125 C 106.058594 157.378906 106.503906 158.078125 106.40625 158.773438 C 106.304688 159.519531 105.609375 159.964844 104.914062 159.867188 C 104.765625 159.816406 101.335938 159.367188 99.101562 162.003906 C 98.804688 162.351562 98.40625 162.5 98.058594 162.5 Z M 98.058594 162.5 " fill-opacity="1" fill-rule="nonzero"/><path fill="#f4e5e0" d="M 187.238281 238.195312 C 126.824219 234.667969 111.175781 174.777344 108.691406 124.976562 C 106.804688 87.300781 130.203125 54.003906 162.894531 46.996094 C 178.992188 43.515625 195.488281 43.515625 211.535156 46.996094 C 244.226562 54.050781 267.625 87.300781 265.738281 124.976562 C 263.304688 174.777344 247.65625 234.667969 187.238281 238.195312 Z M 187.238281 238.195312 " fill-opacity="1" fill-rule="nonzero"/><path fill="#252627" d="M 187.238281 239.535156 L 187.140625 239.535156 C 125.730469 235.957031 109.832031 175.324219 107.347656 125.074219 C 105.460938 87.003906 129.210938 52.910156 162.597656 45.703125 C 178.941406 42.171875 195.488281 42.171875 211.832031 45.703125 C 245.21875 52.910156 268.96875 87.003906 267.082031 125.074219 C 264.597656 175.324219 248.699219 235.957031 187.289062 239.535156 Z M 187.238281 45.703125 C 179.191406 45.703125 171.140625 46.546875 163.191406 48.285156 C 131.046875 55.195312 108.195312 88.148438 110.03125 124.925781 C 112.46875 174.082031 127.867188 233.375 187.238281 236.902344 C 246.660156 233.375 262.011719 174.082031 264.445312 124.925781 C 266.285156 88.148438 243.429688 55.195312 211.285156 48.285156 C 203.289062 46.546875 195.238281 45.703125 187.238281 45.703125 Z M 187.238281 45.703125 " fill-opacity="1" fill-rule="nonzero"/><path fill="#252627" d="M 215.707031 134.417969 C 215.113281 132.382812 219.632812 129.25 225.792969 127.460938 C 231.953125 125.671875 237.417969 125.871094 238.015625 127.90625 C 238.613281 129.945312 234.089844 133.078125 227.929688 134.867188 C 221.769531 136.65625 216.304688 136.457031 215.707031 134.417969 Z M 215.707031 134.417969 " fill-opacity="1" fill-rule="nonzero"/><path fill="#252627" d="M 158.722656 134.417969 C 159.316406 132.382812 154.796875 129.25 148.636719 127.460938 C 142.476562 125.671875 137.011719 125.871094 136.414062 127.90625 C 135.816406 129.945312 140.339844 133.078125 146.5 134.867188 C 152.660156 136.65625 158.125 136.457031 158.722656 134.417969 Z M 158.722656 134.417969 " fill-opacity="1" fill-rule="nonzero"/><path fill="#252627" d="M 153.851562 150.023438 C 153.851562 153.503906 151.019531 156.289062 147.59375 156.289062 C 144.113281 156.289062 141.332031 153.453125 141.332031 150.023438 C 141.332031 146.546875 144.164062 143.761719 147.59375 143.761719 C 151.070312 143.761719 153.851562 146.546875 153.851562 150.023438 Z M 153.851562 150.023438 " fill-opacity="1" fill-rule="nonzero"/><path fill="#252627" d="M 233.148438 150.023438 C 233.148438 153.503906 230.316406 156.289062 226.886719 156.289062 C 223.410156 156.289062 220.625 153.453125 220.625 150.023438 C 220.625 146.546875 223.457031 143.761719 226.886719 143.761719 C 230.316406 143.761719 233.148438 146.546875 233.148438 150.023438 Z M 233.148438 150.023438 " fill-opacity="1" fill-rule="nonzero"/><path fill="#f4e5e0" d="M 193.75 168.265625 C 193.75 168.265625 179.9375 168.265625 180.78125 176.613281 C 181.527344 184.167969 193.75 181.535156 193.75 181.535156 " fill-opacity="1" fill-rule="nonzero"/><path fill="#252627" d="M 189.277344 183.324219 C 186.890625 183.324219 184.109375 182.925781 182.074219 181.484375 C 180.53125 180.34375 179.636719 178.753906 179.441406 176.765625 C 179.242188 174.578125 179.835938 172.6875 181.226562 171.148438 C 185.003906 166.972656 193.402344 166.921875 193.75 166.921875 C 194.492188 166.921875 195.089844 167.519531 195.089844 168.265625 C 195.089844 169.011719 194.492188 169.605469 193.75 169.605469 C 193.648438 169.605469 186.148438 169.65625 183.164062 172.9375 C 182.269531 173.929688 181.921875 175.074219 182.074219 176.464844 C 182.222656 177.707031 182.71875 178.652344 183.613281 179.300781 C 186.246094 181.238281 191.613281 180.640625 193.449219 180.242188 C 194.144531 180.09375 194.890625 180.542969 195.039062 181.285156 C 195.1875 181.984375 194.742188 182.726562 193.996094 182.878906 C 193.847656 182.878906 191.761719 183.324219 189.277344 183.324219 Z M 189.277344 183.324219 " fill-opacity="1" fill-rule="nonzero"/><path fill="#f4e5e0" d="M 201.648438 202.359375 C 201.648438 202.359375 200.007812 211.605469 187.539062 211.703125 C 174.472656 211.851562 172.78125 202.359375 172.78125 202.359375 C 172.78125 202.359375 186.195312 197.042969 201.648438 202.359375 Z M 201.648438 202.359375 " fill-opacity="1" fill-rule="nonzero"/><path fill="#252627" d="M 187.289062 213.046875 C 173.527344 213.046875 171.539062 202.707031 171.492188 202.609375 C 171.390625 201.960938 171.738281 201.367188 172.285156 201.167969 C 172.832031 200.96875 186.296875 195.75 202.046875 201.167969 C 202.640625 201.367188 203.039062 202.011719 202.941406 202.660156 C 202.941406 202.757812 200.902344 212.996094 187.539062 213.097656 C 187.4375 213.046875 187.390625 213.046875 187.289062 213.046875 Z M 174.421875 203.207031 C 175.265625 205.441406 178.199219 210.410156 187.289062 210.410156 C 187.390625 210.410156 187.4375 210.410156 187.539062 210.410156 C 196.28125 210.3125 199.164062 205.492188 200.007812 203.253906 C 188.234375 199.578125 177.800781 202.160156 174.421875 203.207031 Z M 174.421875 203.207031 " fill-opacity="1" fill-rule="nonzero"/><path stroke-linecap="round" transform="matrix(4.968304, 0, 0, 4.970127, 30.638823, 0.523598)" fill="none" stroke-linejoin="round" d="M 50.900369 59.709835 C 50.900369 59.709835 49.960034 66.100359 50.900369 76.610025 " stroke="#ffffff" stroke-width="0.533" stroke-opacity="1" stroke-miterlimit="10"/><path fill="#252627" d="M 266.035156 134.171875 C 266.035156 132.429688 265.789062 93.117188 244.125 85.761719 C 221.867188 78.15625 189.871094 87.5 187.886719 87.5 C 185.996094 87.5 153.953125 78.15625 131.742188 85.761719 C 110.132812 93.117188 109.832031 132.429688 109.832031 134.171875 C 82.210938 30.59375 187.886719 41.925781 187.886719 41.925781 C 187.886719 41.925781 293.5625 30.59375 266.035156 134.171875 Z M 266.035156 134.171875 " fill-opacity="1" fill-rule="nonzero"/><path stroke-linecap="butt" transform="matrix(4.968304, 0, 0, 4.970127, 30.638823, 0.523598)" fill="none" stroke-linejoin="miter" d="M 29.569839 29.249723 C 29.569839 32.579775 26.869912 35.280284 23.54021 35.280284 C 20.209723 35.280284 17.509795 32.579775 17.509795 29.249723 C 17.509795 25.919671 20.209723 23.219948 23.54021 23.219948 C 26.869912 23.219948 29.569839 25.919671 29.569839 29.249723 Z M 29.569839 29.249723 " stroke="#000000" stroke-width="0.532" stroke-opacity="1" stroke-miterlimit="10"/><path stroke-linecap="butt" transform="matrix(4.968304, 0, 0, 4.970127, 30.638823, 0.523598)" fill="none" stroke-linejoin="miter" d="M 45.530391 29.249723 C 45.530391 32.579775 42.829677 35.280284 39.499976 35.280284 C 36.170274 35.280284 33.470347 32.579775 33.470347 29.249723 C 33.470347 25.919671 36.170274 23.219948 39.499976 23.219948 C 42.829677 23.219948 45.530391 25.919671 45.530391 29.249723 Z M 45.530391 29.249723 " stroke="#000000" stroke-width="0.532" stroke-opacity="1" stroke-miterlimit="10"/><path stroke-linecap="butt" transform="matrix(4.968304, 0, 0, 4.970127, 30.638823, 0.523598)" fill="none" stroke-linejoin="miter" d="M 29.090237 26.890314 C 29.090237 26.890314 31.360094 25.779773 33.949949 26.890314 " stroke="#000000" stroke-width="0.532" stroke-opacity="1" stroke-miterlimit="10"/><path stroke-linecap="butt" transform="matrix(4.968304, 0, 0, 4.970127, 30.638823, 0.523598)" fill="none" stroke-linejoin="miter" d="M 45.399876 28.000069 L 47.099714 28.000069 " stroke="#000000" stroke-width="0.532" stroke-opacity="1" stroke-miterlimit="10"/><path stroke-linecap="butt" transform="matrix(4.968304, 0, 0, 4.970127, 30.638823, 0.523598)" fill="none" stroke-linejoin="miter" d="M 15.689663 28.000069 L 17.390288 28.000069 " stroke="#000000" stroke-width="0.532" stroke-opacity="1" stroke-miterlimit="10"/><path stroke-linecap="round" transform="matrix(4.968304, 0, 0, 4.970127, 30.638823, 0.523598)" fill-opacity="1" fill="#252627" fill-rule="nonzero" stroke-linejoin="round" d="M 37.940087 50.269841 C 37.880333 50.999984 37.240339 50.879735 37.179799 51.319864 C 37.109824 51.770211 37.179799 53.049731 37.179799 53.049731 C 37.32997 59.80965 31.510265 63.549966 31.510265 63.549966 C 31.510265 63.549966 25.699995 59.80965 25.850166 53.049731 C 25.850166 53.049731 25.920141 51.770211 25.850166 51.319864 C 25.789626 50.879735 25.149632 50.999984 25.089878 50.269841 C 25.019903 49.539697 31.510265 49.70003 31.510265 49.70003 C 31.510265 49.70003 38.010062 49.539697 37.940087 50.269841 Z M 37.940087 50.269841 " stroke="#000000" stroke-width="0.533" stroke-opacity="1" stroke-miterlimit="10"/></svg>