<svg xmlns="http://www.w3.org/2000/svg" xmlns:xlink="http://www.w3.org/1999/xlink" width="500" zoomAndPan="magnify" viewBox="0 0 375 374.999991" height="500" preserveAspectRatio="xMidYMid meet" version="1.0"><defs><clipPath id="63d2d578eb"><path d="M 37.5 257 L 336.75 257 L 336.75 375 L 37.5 375 Z M 37.5 257 " clip-rule="nonzero"/></clipPath></defs><path fill="#f4e5e0" d="M 270.355469 94.035156 C 270.355469 94.035156 278.179688 129.015625 260.726562 150.863281 C 260.726562 150.863281 260.539062 107.355469 252.191406 95.886719 Z M 270.355469 94.035156 " fill-opacity="1" fill-rule="nonzero"/><path fill="#252627" d="M 259.398438 154.609375 L 259.398438 150.863281 C 259.398438 150.4375 259.117188 107.640625 251.148438 96.644531 L 249.820312 94.796875 L 271.445312 92.613281 L 271.683594 93.753906 C 272.015625 95.222656 279.460938 129.582031 261.773438 151.667969 Z M 254.421875 96.976562 C 260.445312 108.304688 261.722656 136.40625 261.960938 146.882812 C 274.339844 128.019531 270.355469 101.289062 269.265625 95.507812 Z M 254.421875 96.976562 " fill-opacity="1" fill-rule="nonzero"/><path fill="#f4e5e0" d="M 105.222656 84.652344 C 105.222656 84.652344 94.789062 129.015625 112.289062 150.863281 C 112.289062 150.863281 112.476562 107.355469 120.824219 95.886719 Z M 105.222656 84.652344 " fill-opacity="1" fill-rule="nonzero"/><path fill="#252627" d="M 113.570312 154.609375 L 111.246094 151.667969 C 93.554688 129.582031 103.515625 86.167969 103.941406 84.367188 L 104.417969 82.425781 L 122.675781 95.554688 L 121.914062 96.644531 C 113.949219 107.6875 113.664062 150.4375 113.664062 150.863281 Z M 106.074219 86.929688 C 104.464844 95.175781 99.105469 127.640625 111.007812 146.789062 C 111.292969 135.980469 112.574219 106.976562 118.976562 96.167969 Z M 106.074219 86.929688 " fill-opacity="1" fill-rule="nonzero"/><path fill="#f4e5e0" d="M 335.183594 373.574219 L 38.78125 373.574219 C 38.78125 373.574219 46.9375 347.554688 74.207031 305.183594 C 101.429688 262.8125 186.984375 258.59375 186.984375 258.59375 C 186.984375 258.59375 272.535156 262.8125 299.757812 305.183594 C 327.027344 347.554688 335.183594 373.574219 335.183594 373.574219 Z M 335.183594 373.574219 " fill-opacity="1" fill-rule="nonzero"/><path fill="#f4e5e0" d="M 38.78125 373.574219 C 38.78125 373.574219 46.9375 347.554688 74.207031 305.183594 C 101.429688 262.8125 186.984375 258.59375 186.984375 258.59375 C 186.984375 258.59375 272.535156 262.8125 299.757812 305.183594 C 327.027344 347.554688 335.183594 373.574219 335.183594 373.574219 " fill-opacity="1" fill-rule="nonzero"/><g clip-path="url(#63d2d578eb)"><path fill="#252627" d="M 335.183594 374.851562 C 334.664062 374.851562 334.140625 374.519531 334 373.953125 C 333.90625 373.714844 325.558594 347.554688 298.714844 305.84375 C 272.15625 264.515625 187.789062 259.871094 186.933594 259.824219 C 186.222656 259.871094 101.855469 264.515625 75.296875 305.84375 C 48.457031 347.554688 40.109375 373.667969 40.011719 373.953125 C 39.824219 374.617188 39.113281 374.996094 38.449219 374.757812 C 37.785156 374.566406 37.40625 373.855469 37.640625 373.195312 C 37.738281 372.910156 46.179688 346.511719 73.210938 304.519531 C 100.480469 262.101562 183.472656 257.503906 186.984375 257.359375 C 190.632812 257.550781 273.628906 262.101562 300.898438 304.519531 C 327.929688 346.558594 336.371094 372.957031 336.464844 373.195312 C 336.65625 373.855469 336.324219 374.566406 335.660156 374.757812 C 335.421875 374.804688 335.28125 374.851562 335.183594 374.851562 Z M 335.183594 374.851562 " fill-opacity="1" fill-rule="nonzero"/></g><path fill="#f4e5e0" d="M 209.273438 267.359375 C 209.273438 267.359375 209.367188 273.332031 205.667969 281.152344 C 198.363281 296.652344 175.648438 296.652344 168.34375 281.152344 C 164.644531 273.332031 164.742188 267.359375 164.742188 267.359375 C 170.527344 249.539062 167.492188 215.320312 167.492188 215.320312 L 206.570312 215.320312 C 206.523438 215.320312 203.488281 249.539062 209.273438 267.359375 Z M 209.273438 267.359375 " fill-opacity="1" fill-rule="nonzero"/><path fill="#252627" d="M 186.984375 294.042969 C 178.351562 294.042969 170.761719 289.304688 167.160156 281.675781 C 163.363281 273.664062 163.414062 267.597656 163.414062 267.3125 L 163.460938 266.933594 C 169.105469 249.539062 166.164062 215.746094 166.164062 215.414062 L 166.019531 214.042969 L 207.847656 214.042969 L 207.707031 215.414062 C 207.660156 215.746094 204.765625 249.585938 210.410156 266.933594 L 210.457031 267.3125 C 210.457031 267.550781 210.503906 273.664062 206.710938 281.675781 C 203.203125 289.304688 195.613281 294.042969 186.984375 294.042969 Z M 165.925781 267.550781 C 165.972656 268.546875 166.257812 273.902344 169.4375 280.632812 C 172.613281 287.359375 179.347656 291.53125 186.984375 291.53125 C 194.617188 291.53125 201.351562 287.359375 204.53125 280.632812 C 207.707031 273.902344 207.992188 268.59375 208.039062 267.550781 C 202.917969 251.484375 204.671875 223.234375 205.195312 216.601562 L 168.867188 216.601562 C 169.292969 223.234375 171.09375 251.484375 165.925781 267.550781 Z M 165.925781 267.550781 " fill-opacity="1" fill-rule="nonzero"/><path fill="#f4e5e0" d="M 256.554688 146.691406 C 256.554688 146.691406 269.265625 138.210938 278.9375 147.59375 C 288.613281 156.976562 280.457031 189.207031 250.769531 177.972656 Z M 256.554688 146.691406 " fill-opacity="1" fill-rule="nonzero"/><path fill="#252627" d="M 262.386719 181.621094 C 258.925781 181.621094 254.941406 180.910156 250.34375 179.207031 L 249.347656 178.828125 L 255.371094 145.933594 L 255.796875 145.648438 C 255.9375 145.554688 269.5 136.738281 279.792969 146.691406 C 285.292969 152.046875 285.484375 163.613281 280.21875 171.953125 C 278.085938 175.320312 272.726562 181.621094 262.386719 181.621094 Z M 252.238281 177.167969 C 263.527344 181.101562 272.964844 178.730469 278.132812 170.578125 C 282.734375 163.328125 282.734375 152.996094 278.085938 148.492188 C 270.117188 140.769531 259.96875 146.125 257.691406 147.453125 Z M 252.238281 177.167969 " fill-opacity="1" fill-rule="nonzero"/><path fill="#f4e5e0" d="M 263.097656 169.15625 C 263.097656 169.15625 264.523438 152.902344 274.101562 154.132812 " fill-opacity="1" fill-rule="nonzero"/><path fill="#252627" d="M 263.097656 170.4375 C 263.050781 170.4375 263.003906 170.4375 263.003906 170.4375 C 262.292969 170.390625 261.773438 169.773438 261.867188 169.0625 C 261.914062 168.636719 262.816406 158.824219 267.9375 154.65625 C 269.785156 153.1875 271.871094 152.570312 274.246094 152.902344 C 274.957031 152.996094 275.429688 153.613281 275.335938 154.324219 C 275.238281 155.035156 274.574219 155.507812 273.914062 155.414062 C 272.203125 155.222656 270.78125 155.601562 269.5 156.644531 C 265.1875 160.105469 264.332031 169.207031 264.332031 169.300781 C 264.332031 169.964844 263.761719 170.4375 263.097656 170.4375 Z M 263.097656 170.4375 " fill-opacity="1" fill-rule="nonzero"/><path fill="#f4e5e0" d="M 265.375 161.195312 C 265.375 161.195312 269.453125 160.53125 272.0625 163.660156 " fill-opacity="1" fill-rule="nonzero"/><path fill="#252627" d="M 272.109375 164.941406 C 271.730469 164.941406 271.398438 164.796875 271.160156 164.464844 C 269.027344 161.90625 265.660156 162.429688 265.613281 162.429688 C 264.949219 162.523438 264.285156 162.050781 264.144531 161.386719 C 264.046875 160.675781 264.523438 160.058594 265.1875 159.917969 C 265.375 159.867188 270.023438 159.207031 273.058594 162.808594 C 273.484375 163.328125 273.4375 164.132812 272.917969 164.609375 C 272.679688 164.84375 272.394531 164.941406 272.109375 164.941406 Z M 272.109375 164.941406 " fill-opacity="1" fill-rule="nonzero"/><path fill="#f4e5e0" d="M 117.363281 146.691406 C 117.363281 146.691406 104.652344 138.210938 94.980469 147.59375 C 85.304688 156.976562 93.460938 189.207031 123.148438 177.972656 Z M 117.363281 146.691406 " fill-opacity="1" fill-rule="nonzero"/><path fill="#252627" d="M 111.578125 181.621094 C 101.238281 181.621094 95.832031 175.320312 93.699219 171.953125 C 88.386719 163.613281 88.578125 152.046875 94.125 146.691406 C 104.417969 136.738281 117.980469 145.554688 118.121094 145.648438 L 118.550781 145.933594 L 124.570312 178.828125 L 123.574219 179.207031 C 118.976562 180.910156 114.992188 181.621094 111.578125 181.621094 Z M 105.839844 144.417969 C 102.613281 144.417969 99.058594 145.414062 95.878906 148.492188 C 91.230469 152.996094 91.230469 163.28125 95.832031 170.578125 C 101 178.730469 110.390625 181.101562 121.726562 177.167969 L 116.273438 147.453125 C 114.898438 146.644531 110.675781 144.417969 105.839844 144.417969 Z M 105.839844 144.417969 " fill-opacity="1" fill-rule="nonzero"/><path fill="#f4e5e0" d="M 110.820312 169.15625 C 110.820312 169.15625 109.394531 152.902344 99.816406 154.132812 " fill-opacity="1" fill-rule="nonzero"/><path fill="#252627" d="M 110.820312 170.4375 C 110.15625 170.4375 109.632812 169.964844 109.539062 169.300781 C 109.539062 169.207031 108.683594 160.105469 104.367188 156.644531 C 103.089844 155.601562 101.664062 155.222656 99.957031 155.414062 C 99.246094 155.507812 98.628906 155.035156 98.535156 154.324219 C 98.441406 153.613281 98.914062 152.996094 99.625 152.902344 C 101.996094 152.617188 104.132812 153.1875 105.933594 154.65625 C 111.101562 158.824219 112.003906 168.636719 112.003906 169.0625 C 112.050781 169.773438 111.53125 170.390625 110.867188 170.4375 C 110.914062 170.4375 110.867188 170.4375 110.820312 170.4375 Z M 110.820312 170.4375 " fill-opacity="1" fill-rule="nonzero"/><path fill="#f4e5e0" d="M 108.542969 161.195312 C 108.542969 161.195312 104.464844 160.53125 101.855469 163.660156 " fill-opacity="1" fill-rule="nonzero"/><path fill="#252627" d="M 101.855469 164.941406 C 101.570312 164.941406 101.285156 164.84375 101.050781 164.65625 C 100.527344 164.230469 100.433594 163.421875 100.90625 162.855469 C 103.941406 159.207031 108.589844 159.917969 108.78125 159.964844 C 109.492188 160.058594 109.917969 160.722656 109.824219 161.386719 C 109.726562 162.097656 109.0625 162.523438 108.398438 162.429688 C 108.257812 162.429688 104.984375 161.953125 102.851562 164.464844 C 102.566406 164.796875 102.1875 164.941406 101.855469 164.941406 Z M 101.855469 164.941406 " fill-opacity="1" fill-rule="nonzero"/><path fill="#f4e5e0" d="M 186.984375 237.121094 C 129.3125 233.757812 114.375 176.648438 112.003906 129.15625 C 110.203125 93.230469 132.539062 61.476562 163.746094 54.792969 C 179.109375 51.476562 194.855469 51.476562 210.171875 54.792969 C 241.378906 61.523438 263.714844 93.230469 261.914062 129.15625 C 259.589844 176.648438 244.652344 233.757812 186.984375 237.121094 Z M 186.984375 237.121094 " fill-opacity="1" fill-rule="nonzero"/><path fill="#252627" d="M 186.984375 238.402344 L 186.886719 238.402344 C 128.269531 234.988281 113.09375 177.121094 110.722656 129.203125 C 108.921875 92.898438 131.589844 60.386719 163.460938 53.515625 C 179.0625 50.148438 194.855469 50.148438 210.457031 53.515625 C 242.328125 60.386719 264.996094 92.898438 263.195312 129.203125 C 260.824219 177.121094 245.695312 234.941406 187.03125 238.355469 Z M 186.984375 53.5625 C 179.300781 53.5625 171.664062 54.367188 164.027344 56.027344 C 133.34375 62.613281 111.53125 94.035156 113.285156 129.109375 C 115.609375 175.984375 130.308594 232.523438 186.984375 235.890625 C 243.703125 232.523438 258.355469 175.984375 260.679688 129.109375 C 262.433594 94.035156 240.621094 62.613281 209.9375 56.027344 C 202.300781 54.367188 194.617188 53.5625 186.984375 53.5625 Z M 186.984375 53.5625 " fill-opacity="1" fill-rule="nonzero"/><path fill="#252627" d="M 213.777344 132.472656 C 214.015625 134.511719 219.136719 135.554688 225.207031 134.890625 C 231.277344 134.179688 236.066406 132 235.832031 129.960938 C 235.59375 127.925781 230.472656 126.882812 224.402344 127.546875 C 218.28125 128.257812 213.539062 130.4375 213.777344 132.472656 Z M 213.777344 132.472656 " fill-opacity="1" fill-rule="nonzero"/><path fill="#252627" d="M 160.140625 132.472656 C 159.902344 134.511719 154.78125 135.554688 148.710938 134.890625 C 142.640625 134.179688 137.851562 132 138.085938 129.960938 C 138.324219 127.925781 143.445312 126.882812 149.515625 127.546875 C 155.636719 128.257812 160.378906 130.4375 160.140625 132.472656 Z M 160.140625 132.472656 " fill-opacity="1" fill-rule="nonzero"/><path fill="#252627" d="M 155.113281 153.042969 C 155.113281 156.363281 152.410156 159.015625 149.136719 159.015625 C 145.816406 159.015625 143.164062 156.3125 143.164062 153.042969 C 143.164062 149.726562 145.867188 147.070312 149.136719 147.070312 C 152.457031 147.070312 155.113281 149.726562 155.113281 153.042969 Z M 155.113281 153.042969 " fill-opacity="1" fill-rule="nonzero"/><path fill="#252627" d="M 230.804688 153.042969 C 230.804688 156.363281 228.101562 159.015625 224.828125 159.015625 C 221.507812 159.015625 218.851562 156.3125 218.851562 153.042969 C 218.851562 149.726562 221.554688 147.070312 224.828125 147.070312 C 228.101562 147.070312 230.804688 149.726562 230.804688 153.042969 Z M 230.804688 153.042969 " fill-opacity="1" fill-rule="nonzero"/><path fill="#f4e5e0" d="M 193.195312 170.4375 C 193.195312 170.4375 180.011719 170.4375 180.816406 178.398438 C 181.527344 185.605469 193.195312 183.09375 193.195312 183.09375 " fill-opacity="1" fill-rule="nonzero"/><path fill="#252627" d="M 188.925781 184.796875 C 186.652344 184.796875 183.996094 184.417969 182.050781 183.042969 C 180.582031 181.953125 179.726562 180.4375 179.535156 178.542969 C 179.347656 176.457031 179.917969 174.65625 181.246094 173.1875 C 184.847656 169.207031 192.863281 169.15625 193.195312 169.15625 C 193.90625 169.15625 194.476562 169.726562 194.476562 170.4375 C 194.476562 171.148438 193.90625 171.71875 193.195312 171.71875 C 193.101562 171.71875 185.9375 171.765625 183.09375 174.894531 C 182.238281 175.839844 181.910156 176.929688 182.050781 178.304688 C 182.191406 179.492188 182.667969 180.390625 183.519531 181.007812 C 186.035156 182.855469 191.15625 182.285156 192.910156 181.90625 C 193.574219 181.765625 194.285156 182.191406 194.429688 182.902344 C 194.570312 183.566406 194.144531 184.277344 193.433594 184.417969 C 193.289062 184.371094 191.296875 184.796875 188.925781 184.796875 Z M 188.925781 184.796875 " fill-opacity="1" fill-rule="nonzero"/><path fill="#f4e5e0" d="M 278.890625 293.476562 C 278.890625 293.476562 274.433594 323.761719 278.890625 373.574219 " fill-opacity="1" fill-rule="nonzero"/><path fill="#252627" d="M 278.890625 374.851562 C 278.226562 374.851562 277.707031 374.378906 277.613281 373.714844 C 273.199219 324.328125 277.5625 293.617188 277.613281 293.332031 C 277.707031 292.621094 278.371094 292.148438 279.035156 292.242188 C 279.746094 292.335938 280.21875 293 280.125 293.664062 C 280.078125 293.949219 275.761719 324.425781 280.125 373.476562 C 280.171875 374.1875 279.652344 374.804688 278.988281 374.851562 C 278.988281 374.851562 278.9375 374.851562 278.890625 374.851562 Z M 278.890625 374.851562 " fill-opacity="1" fill-rule="nonzero"/><path fill="#f4e5e0" d="M 97.351562 293.476562 C 97.351562 293.476562 101.808594 323.761719 97.351562 373.574219 " fill-opacity="1" fill-rule="nonzero"/><path fill="#252627" d="M 97.351562 374.851562 C 97.300781 374.851562 97.253906 374.851562 97.253906 374.851562 C 96.542969 374.804688 96.070312 374.1875 96.117188 373.476562 C 100.480469 324.375 96.164062 293.996094 96.117188 293.664062 C 96.023438 292.953125 96.496094 292.335938 97.207031 292.242188 C 97.871094 292.148438 98.535156 292.621094 98.628906 293.332031 C 98.679688 293.617188 103.039062 324.328125 98.628906 373.714844 C 98.535156 374.332031 98.015625 374.851562 97.351562 374.851562 Z M 97.351562 374.851562 " fill-opacity="1" fill-rule="nonzero"/><path fill="#252627" d="M 132.160156 91.097656 C 132.160156 91.097656 140.601562 111.953125 152.171875 112.617188 C 163.746094 113.28125 152.171875 88.351562 152.171875 88.351562 C 152.171875 88.351562 161.324219 108.539062 193.71875 112.617188 C 226.109375 116.691406 211.265625 97.542969 211.265625 97.542969 C 211.265625 97.542969 226.726562 116.027344 244.554688 116.027344 C 262.433594 116.027344 246.074219 97.210938 246.074219 97.210938 C 246.074219 97.210938 273.914062 111.574219 283.160156 102.1875 C 292.40625 92.804688 263.050781 75.363281 263.050781 75.363281 C 263.050781 75.363281 280.929688 79.109375 279.082031 68.539062 C 277.28125 57.921875 241.570312 38.441406 208.5625 39.816406 C 208.5625 39.816406 230.328125 36.738281 230.042969 28.539062 C 229.761719 20.335938 183.710938 25.125 169.816406 37.777344 C 169.816406 37.777344 193.765625 19.675781 189.828125 10.101562 C 185.890625 0.527344 138.371094 12.46875 124.144531 50.101562 C 124.144531 50.101562 112.335938 47.351562 94.457031 69.25 C 76.578125 91.144531 108.921875 84.652344 108.921875 84.652344 C 108.921875 84.652344 90.519531 110.292969 103.847656 116.125 C 117.078125 121.859375 132.160156 91.097656 132.160156 91.097656 Z M 132.160156 91.097656 " fill-opacity="1" fill-rule="nonzero"/><path fill="#252627" d="M 213.777344 261.863281 C 213.777344 261.863281 222.882812 308.214844 218.804688 373.574219 L 232.511719 373.574219 C 232.511719 373.574219 236.777344 304.042969 227.386719 264.613281 Z M 213.777344 261.863281 " fill-opacity="1" fill-rule="nonzero"/><path fill="#252627" d="M 159.855469 261.863281 C 159.855469 261.863281 150.75 308.214844 154.828125 373.574219 L 141.121094 373.574219 C 141.121094 373.574219 136.855469 304.042969 146.246094 264.613281 Z M 159.855469 261.863281 " fill-opacity="1" fill-rule="nonzero"/><path fill="#252627" d="M 244.652344 146.410156 C 244.222656 155.746094 240.808594 170.011719 224.636719 172.523438 C 223.167969 172.761719 221.746094 172.855469 220.417969 172.855469 C 217.808594 172.902344 215.390625 172.523438 213.257812 171.765625 C 211.878906 171.339844 210.648438 170.816406 209.507812 170.199219 C 206.191406 168.445312 203.488281 165.886719 201.398438 162.996094 C 197.890625 158.304688 195.851562 152.664062 194.902344 147.734375 C 193.953125 142.757812 197.699219 138.257812 202.726562 138.257812 L 236.683594 138.257812 C 237.441406 138.257812 238.152344 138.351562 238.867188 138.589844 C 242.328125 139.488281 244.792969 142.710938 244.652344 146.410156 Z M 244.652344 146.410156 " fill-opacity="1" fill-rule="nonzero"/><path fill="#252627" d="M 219.894531 174.324219 C 217.382812 174.324219 214.964844 173.945312 212.78125 173.140625 C 211.167969 172.617188 209.890625 172.097656 208.796875 171.433594 C 205.574219 169.726562 202.679688 167.167969 200.214844 163.851562 C 196.941406 159.488281 194.570312 153.847656 193.480469 147.972656 C 192.957031 145.175781 193.667969 142.285156 195.472656 140.152344 C 197.273438 138.019531 199.882812 136.789062 202.679688 136.789062 L 236.683594 136.789062 C 237.585938 136.789062 238.4375 136.929688 239.292969 137.167969 C 243.417969 138.257812 246.3125 142.191406 246.121094 146.457031 C 245.695312 155.554688 242.375 171.242188 224.875 173.945312 C 223.121094 174.230469 221.414062 174.324219 219.894531 174.324219 Z M 202.679688 139.679688 C 200.734375 139.679688 198.933594 140.53125 197.699219 142 C 196.46875 143.515625 195.945312 145.507812 196.324219 147.453125 C 197.320312 152.902344 199.550781 158.113281 202.539062 162.144531 C 204.71875 165.128906 207.328125 167.40625 210.171875 168.921875 C 211.167969 169.488281 212.261719 169.964844 213.683594 170.390625 C 215.722656 171.101562 218 171.433594 220.371094 171.433594 C 221.648438 171.433594 222.976562 171.339844 224.402344 171.101562 C 239.101562 168.828125 242.707031 156.363281 243.179688 146.359375 C 243.324219 143.421875 241.332031 140.769531 238.484375 139.960938 C 237.871094 139.773438 237.300781 139.679688 236.683594 139.679688 Z M 202.679688 139.679688 " fill-opacity="1" fill-rule="nonzero"/><path fill="#f4e5e0" d="M 226.773438 138.210938 C 224.351562 142.804688 221.367188 147.214844 218.945312 151.667969 C 215.675781 157.785156 212.496094 163.945312 209.507812 170.152344 C 206.191406 168.398438 203.488281 165.839844 201.398438 162.949219 C 203.582031 158.496094 205.808594 153.992188 208.179688 149.585938 C 210.125 145.886719 212.640625 142.046875 214.964844 138.160156 L 226.773438 138.160156 Z M 226.773438 138.210938 " fill-opacity="1" fill-rule="nonzero"/><path fill="#f4e5e0" d="M 238.867188 138.539062 C 236.304688 143.945312 232.796875 149.0625 230.042969 154.179688 C 226.726562 160.296875 223.546875 166.550781 220.417969 172.855469 C 217.808594 172.902344 215.390625 172.523438 213.257812 171.765625 C 216.101562 165.699219 219.089844 159.773438 222.265625 153.898438 C 224.921875 148.824219 228.574219 143.660156 231.371094 138.257812 L 236.683594 138.257812 C 237.441406 138.210938 238.152344 138.351562 238.867188 138.539062 Z M 238.867188 138.539062 " fill-opacity="1" fill-rule="nonzero"/><path fill="#252627" d="M 179.109375 147.734375 C 178.160156 152.710938 176.121094 158.304688 172.613281 162.996094 C 170.480469 165.886719 167.824219 168.445312 164.503906 170.199219 C 163.363281 170.863281 162.085938 171.339844 160.757812 171.765625 C 159.285156 172.332031 157.722656 172.617188 156.015625 172.808594 C 155.253906 172.855469 154.449219 172.855469 153.59375 172.855469 C 152.269531 172.855469 150.84375 172.761719 149.375 172.523438 C 148.804688 172.476562 148.332031 172.382812 147.855469 172.191406 C 146.292969 171.90625 144.820312 171.433594 143.496094 170.863281 C 139.273438 169.109375 136.285156 166.3125 134.152344 163.140625 C 130.640625 157.925781 129.550781 151.433594 129.363281 146.410156 C 129.21875 142.710938 131.683594 139.488281 135.148438 138.539062 C 135.859375 138.304688 136.570312 138.210938 137.328125 138.210938 L 171.332031 138.210938 C 171.757812 138.210938 172.140625 138.257812 172.519531 138.304688 C 176.882812 139.015625 179.964844 143.136719 179.109375 147.734375 Z M 179.109375 147.734375 " fill-opacity="1" fill-rule="nonzero"/><path fill="#f4e5e0" d="M 159.050781 138.210938 C 156.867188 142.425781 154.496094 146.597656 152.550781 150.816406 C 149.421875 157.402344 146.386719 164.132812 143.445312 170.910156 C 139.226562 169.15625 136.238281 166.363281 134.105469 163.1875 C 136.285156 158.164062 138.46875 153.28125 140.839844 148.304688 C 142.355469 145.035156 144.207031 141.714844 146.054688 138.257812 L 159.050781 138.257812 Z M 159.050781 138.210938 " fill-opacity="1" fill-rule="nonzero"/><path fill="#f4e5e0" d="M 172.472656 138.351562 C 169.957031 143.660156 167.015625 148.777344 164.550781 153.898438 C 161.609375 160.105469 158.71875 166.457031 155.917969 172.808594 C 155.160156 172.855469 154.355469 172.855469 153.5 172.855469 C 152.171875 172.855469 150.75 172.761719 149.28125 172.523438 C 148.710938 172.476562 148.238281 172.382812 147.761719 172.191406 C 150.371094 165.839844 153.167969 159.632812 156.109375 153.46875 C 158.386719 148.492188 161.46875 143.421875 164.078125 138.210938 L 171.238281 138.210938 C 171.710938 138.210938 172.089844 138.304688 172.472656 138.351562 Z M 172.472656 138.351562 " fill-opacity="1" fill-rule="nonzero"/><path fill="#252627" d="M 149.089844 173.992188 C 131.589844 171.289062 128.269531 155.601562 127.84375 146.503906 C 127.65625 142.238281 130.546875 138.304688 134.671875 137.214844 C 135.527344 136.929688 136.378906 136.835938 137.28125 136.835938 L 171.285156 136.835938 C 174.082031 136.835938 176.738281 138.066406 178.492188 140.199219 C 180.296875 142.378906 181.007812 145.222656 180.484375 148.019531 C 179.394531 153.898438 176.976562 159.488281 173.75 163.898438 C 171.285156 167.261719 168.390625 169.820312 165.167969 171.480469 C 164.078125 172.097656 162.75 172.664062 161.183594 173.1875 C 159.003906 173.992188 156.582031 174.371094 154.070312 174.371094 C 152.503906 174.324219 150.84375 174.230469 149.089844 173.992188 Z M 137.234375 139.679688 C 136.617188 139.679688 136.046875 139.773438 135.433594 139.960938 C 132.585938 140.722656 130.59375 143.421875 130.738281 146.359375 C 131.210938 156.410156 134.863281 168.828125 149.515625 171.101562 C 150.890625 171.289062 152.269531 171.433594 153.546875 171.433594 C 155.917969 171.480469 158.195312 171.148438 160.234375 170.390625 C 161.65625 169.917969 162.796875 169.441406 163.746094 168.921875 C 166.589844 167.40625 169.199219 165.128906 171.378906 162.144531 C 174.367188 158.113281 176.597656 152.902344 177.59375 147.453125 C 177.972656 145.507812 177.449219 143.515625 176.21875 142 C 174.984375 140.53125 173.183594 139.679688 171.238281 139.679688 Z M 137.234375 139.679688 " fill-opacity="1" fill-rule="nonzero"/><path fill="#252627" d="M 198.601562 142.046875 C 185.417969 134.796875 176.265625 141.667969 175.886719 141.953125 L 174.320312 139.960938 C 174.746094 139.632812 185.085938 131.761719 199.789062 139.867188 Z M 198.601562 142.046875 " fill-opacity="1" fill-rule="nonzero"/><path fill="#252627" d="M 242.46875 141.90625 L 262.007812 141.90625 L 262.007812 144.417969 L 242.46875 144.417969 Z M 242.46875 141.90625 " fill-opacity="1" fill-rule="nonzero"/><path fill="#252627" d="M 111.910156 141.90625 L 131.449219 141.90625 L 131.449219 144.417969 L 111.910156 144.417969 Z M 111.910156 141.90625 " fill-opacity="1" fill-rule="nonzero"/><path fill="#f4e5e0" d="M 161.988281 199.917969 C 161.988281 199.917969 163.507812 208.070312 179.253906 212.003906 " fill-opacity="1" fill-rule="nonzero"/><path fill="#252627" d="M 179.253906 213.28125 C 179.15625 213.28125 179.0625 213.28125 178.96875 213.234375 C 162.652344 209.160156 160.851562 200.535156 160.757812 200.15625 C 160.613281 199.492188 161.089844 198.828125 161.753906 198.683594 C 162.417969 198.542969 163.082031 199.015625 163.222656 199.679688 C 163.222656 199.773438 164.976562 207.167969 179.535156 210.816406 C 180.199219 211.007812 180.628906 211.671875 180.4375 212.335938 C 180.296875 212.902344 179.820312 213.28125 179.253906 213.28125 Z M 179.253906 213.28125 " fill-opacity="1" fill-rule="nonzero"/></svg>