<svg xmlns="http://www.w3.org/2000/svg" xmlns:xlink="http://www.w3.org/1999/xlink" width="1366" zoomAndPan="magnify" viewBox="0 0 1024.5 576" height="768" preserveAspectRatio="xMidYMid meet" version="1.0"><defs><clipPath id="5dc9119210"><path d="M 0 0.140625 L 560 0.140625 L 560 575.859375 L 0 575.859375 Z M 0 0.140625 " clip-rule="nonzero"/></clipPath></defs><g clip-path="url(#5dc9119210)"><path fill="#252627" d="M 555.5 594.417969 C 512.351562 580.605469 479.988281 545.234375 469.203125 501.4375 C 457.40625 453.9375 468.867188 404.078125 486.394531 359.273438 C 496.171875 335.015625 507.632812 311.433594 518.757812 287.515625 C 529.542969 264.269531 541.003906 241.023438 548.085938 216.09375 C 554.488281 193.1875 556.511719 168.929688 549.769531 146.023438 C 544.375 127.832031 534.261719 111.660156 523.140625 96.5 C 500.214844 65.84375 470.214844 37.542969 460.4375 -0.523438 C 450.324219 -39.601562 464.484375 -79.691406 478.640625 -115.738281 C 493.136719 -152.460938 510.328125 -190.191406 510.667969 -230.617188 C 511.003906 -274.414062 486.058594 -308.777344 460.101562 -341.453125 C 446.28125 -358.636719 432.460938 -375.816406 422.007812 -395.691406 C 411.894531 -415.230469 404.816406 -436.121094 400.773438 -457.679688 C 392.679688 -500.800781 397.402344 -546.617188 414.929688 -587.046875 C 419.3125 -596.816406 424.367188 -606.246094 429.761719 -615.34375 C 431.109375 -617.363281 430.773438 -619.050781 429.761719 -620.734375 C 428.75 -621.746094 427.402344 -622.753906 425.042969 -622.753906 C 379.535156 -622.753906 64.347656 -622.753906 18.503906 -622.753906 C 12.097656 -622.753906 5.691406 -622.753906 -0.710938 -622.753906 C -3.410156 -622.753906 -5.769531 -620.398438 -5.769531 -617.703125 C -5.769531 -606.921875 -5.769531 -595.804688 -5.769531 -585.023438 C -5.769531 -555.714844 -5.769531 -526.066406 -5.769531 -496.757812 C -5.769531 -452.964844 -5.769531 -409.503906 -5.769531 -365.710938 C -5.769531 -312.480469 -5.769531 -259.253906 -5.769531 -205.6875 C -5.769531 -147.40625 -5.769531 -89.460938 -5.769531 -31.179688 C -5.769531 27.773438 -5.769531 87.066406 -5.769531 146.023438 C -5.769531 200.597656 -5.769531 255.511719 -5.769531 310.085938 C -5.769531 356.578125 -5.769531 403.066406 -5.769531 449.222656 C -5.769531 482.574219 -5.769531 515.925781 -5.769531 549.277344 C -5.769531 565.109375 -6.105469 580.945312 -5.769531 596.441406 C -5.769531 597.113281 -5.769531 597.789062 -5.769531 598.460938 C -5.769531 601.15625 -3.410156 603.515625 -0.710938 603.515625 C 31.3125 603.515625 333.351562 603.515625 365.375 603.515625 C 416.277344 603.515625 467.515625 603.515625 518.417969 603.515625 C 530.21875 603.515625 542.015625 603.515625 553.816406 603.515625 C 560.21875 604.1875 560.894531 596.105469 555.5 594.417969 Z M 555.5 594.417969 " fill-opacity="1" fill-rule="nonzero"/></g></svg>