<svg xmlns="http://www.w3.org/2000/svg" xmlns:xlink="http://www.w3.org/1999/xlink" width="1366" zoomAndPan="magnify" viewBox="0 0 1024.5 576" height="768" preserveAspectRatio="xMidYMid meet" version="1.0"><defs><clipPath id="250522fa1d"><path d="M 0 0.140625 L 563.582031 0.140625 L 563.582031 575.804688 L 0 575.804688 Z M 0 0.140625 " clip-rule="nonzero"/></clipPath></defs><g clip-path="url(#250522fa1d)"><path fill="#252627" d="M 561.34375 596.453125 C 518.082031 582.597656 485.632812 547.117188 474.816406 503.1875 C 462.988281 455.542969 474.480469 405.53125 492.054688 360.585938 C 501.855469 336.257812 513.347656 312.601562 524.503906 288.609375 C 535.316406 265.292969 546.808594 241.976562 553.90625 216.972656 C 560.328125 193.996094 562.355469 169.664062 555.597656 146.6875 C 550.1875 128.4375 540.050781 112.21875 528.894531 97.011719 C 505.914062 66.261719 475.832031 37.878906 466.03125 -0.308594 C 455.890625 -39.503906 470.085938 -79.71875 484.28125 -115.875 C 498.816406 -152.707031 516.050781 -190.554688 516.390625 -231.105469 C 516.726562 -275.035156 491.71875 -309.5 465.691406 -342.277344 C 451.835938 -359.511719 437.976562 -376.746094 427.5 -396.683594 C 417.359375 -416.28125 410.261719 -437.234375 406.207031 -458.859375 C 398.09375 -502.113281 402.824219 -548.070312 420.402344 -588.621094 C 424.792969 -598.417969 429.863281 -607.878906 435.273438 -617.003906 C 436.625 -619.03125 436.285156 -620.722656 435.273438 -622.410156 C 434.257812 -623.425781 432.90625 -624.4375 430.539062 -624.4375 C 384.910156 -624.4375 68.890625 -624.4375 22.925781 -624.4375 C 16.503906 -624.4375 10.082031 -624.4375 3.660156 -624.4375 C 0.953125 -624.4375 -1.410156 -622.074219 -1.410156 -619.371094 C -1.410156 -608.554688 -1.410156 -597.40625 -1.410156 -586.589844 C -1.410156 -557.191406 -1.410156 -527.457031 -1.410156 -498.058594 C -1.410156 -454.128906 -1.410156 -410.539062 -1.410156 -366.609375 C -1.410156 -313.21875 -1.410156 -259.828125 -1.410156 -206.097656 C -1.410156 -147.640625 -1.410156 -89.515625 -1.410156 -31.058594 C -1.410156 28.078125 -1.410156 87.550781 -1.410156 146.6875 C -1.410156 201.429688 -1.410156 256.507812 -1.410156 311.25 C -1.410156 357.882812 -1.410156 404.515625 -1.410156 450.808594 C -1.410156 484.265625 -1.410156 517.71875 -1.410156 551.171875 C -1.410156 567.054688 -1.75 582.9375 -1.410156 598.480469 C -1.410156 599.15625 -1.410156 599.832031 -1.410156 600.507812 C -1.410156 603.210938 0.953125 605.574219 3.660156 605.574219 C 35.769531 605.574219 338.605469 605.574219 370.714844 605.574219 C 421.753906 605.574219 473.128906 605.574219 524.164062 605.574219 C 535.992188 605.574219 547.824219 605.574219 559.652344 605.574219 C 566.074219 606.25 566.75 598.140625 561.34375 596.453125 Z M 561.34375 596.453125 " fill-opacity="1" fill-rule="nonzero"/></g></svg>