<svg xmlns="http://www.w3.org/2000/svg" xmlns:xlink="http://www.w3.org/1999/xlink" width="1125" zoomAndPan="magnify" viewBox="0 0 843.75 1826.999929" height="2436" preserveAspectRatio="xMidYMid meet" version="1.0"><defs><clipPath id="fc2f671e9b"><path d="M 0 0.269531 L 843.5 0.269531 L 843.5 1234 L 0 1234 Z M 0 0.269531 " clip-rule="nonzero"/></clipPath></defs><g clip-path="url(#fc2f671e9b)"><path fill="#252627" d="M -247.078125 1225.976562 C -216.914062 1131.800781 -139.65625 1061.171875 -44.007812 1037.628906 C 59.734375 1011.878906 168.628906 1036.890625 266.484375 1075.148438 C 319.460938 1096.488281 370.964844 1121.5 423.203125 1145.78125 C 473.972656 1169.324219 524.738281 1194.339844 579.1875 1209.789062 C 629.21875 1223.769531 682.191406 1228.183594 732.226562 1213.46875 C 771.957031 1201.695312 807.273438 1179.625 840.382812 1155.34375 C 907.335938 1105.316406 969.140625 1039.835938 1052.285156 1018.5 C 1137.632812 996.425781 1225.1875 1027.328125 1303.914062 1058.226562 C 1384.113281 1089.863281 1466.519531 1127.386719 1554.8125 1128.121094 C 1650.460938 1128.859375 1725.507812 1074.414062 1796.878906 1017.761719 C 1834.402344 987.597656 1871.925781 957.433594 1915.335938 934.625 C 1958.011719 912.554688 2003.628906 897.101562 2050.71875 888.273438 C 2144.894531 870.617188 2244.960938 880.917969 2333.25 919.175781 C 2354.589844 928.738281 2375.191406 939.777344 2395.054688 951.546875 C 2399.46875 954.492188 2403.148438 953.753906 2406.828125 951.546875 C 2409.035156 949.339844 2411.242188 946.398438 2411.242188 941.246094 C 2411.242188 841.921875 2411.242188 154.015625 2411.242188 53.957031 C 2411.242188 39.976562 2411.242188 25.996094 2411.242188 12.019531 C 2411.242188 6.132812 2406.089844 0.984375 2400.207031 0.984375 C 2376.660156 0.984375 2352.378906 0.984375 2328.835938 0.984375 C 2264.824219 0.984375 2200.078125 0.984375 2136.066406 0.984375 C 2040.417969 0.984375 1945.503906 0.984375 1849.851562 0.984375 C 1733.601562 0.984375 1617.351562 0.984375 1500.363281 0.984375 C 1373.078125 0.984375 1246.523438 0.984375 1119.238281 0.984375 C 990.480469 0.984375 860.984375 0.984375 732.226562 0.984375 C 613.03125 0.984375 493.101562 0.984375 373.90625 0.984375 C 272.371094 0.984375 170.835938 0.984375 70.035156 0.984375 C -2.804688 0.984375 -75.644531 0.984375 -148.488281 0.984375 C -183.066406 0.984375 -217.648438 0.246094 -251.492188 0.984375 C -252.964844 0.984375 -254.4375 0.984375 -255.910156 0.984375 C -261.792969 0.984375 -266.945312 6.132812 -266.945312 12.019531 C -266.945312 81.914062 -266.945312 741.128906 -266.945312 811.023438 C -266.945312 922.117188 -266.945312 1033.949219 -266.945312 1145.042969 C -266.945312 1170.796875 -266.945312 1196.546875 -266.945312 1222.296875 C -268.417969 1236.277344 -250.757812 1237.746094 -247.078125 1225.976562 Z M -247.078125 1225.976562 " fill-opacity="1" fill-rule="nonzero"/></g></svg>