<svg xmlns="http://www.w3.org/2000/svg" xmlns:xlink="http://www.w3.org/1999/xlink" width="1366" zoomAndPan="magnify" viewBox="0 0 1024.5 576" height="768" preserveAspectRatio="xMidYMid meet" version="1.0"><defs><clipPath id="c98a503873"><path d="M 781 0.140625 L 1024 0.140625 L 1024 575.859375 L 781 575.859375 Z M 781 0.140625 " clip-rule="nonzero"/></clipPath><clipPath id="97995af275"><path d="M 1136.46875 -243.144531 L 1359.96875 755.910156 L 898.863281 859.066406 L 675.367188 -139.992188 Z M 1136.46875 -243.144531 " clip-rule="nonzero"/></clipPath><clipPath id="82a79318f6"><path d="M 675.171875 -139.945312 L 898.671875 859.109375 L 1359.773438 755.957031 L 1136.273438 -243.101562 Z M 675.171875 -139.945312 " clip-rule="nonzero"/></clipPath><clipPath id="93c558ad21"><path d="M 439 0.140625 L 1017 0.140625 L 1017 575.859375 L 439 575.859375 Z M 439 0.140625 " clip-rule="nonzero"/></clipPath><clipPath id="a743fb3844"><path d="M 794.085938 -232.277344 L 1017.585938 766.78125 L 556.484375 869.933594 L 332.984375 -129.121094 Z M 794.085938 -232.277344 " clip-rule="nonzero"/></clipPath><clipPath id="1e74218d36"><path d="M 332.789062 -129.078125 L 556.289062 869.976562 L 1017.390625 766.824219 L 793.894531 -232.230469 Z M 332.789062 -129.078125 " clip-rule="nonzero"/></clipPath></defs><g clip-path="url(#c98a503873)"><g clip-path="url(#97995af275)"><g clip-path="url(#82a79318f6)"><path fill="#252627" d="M 901.273438 850.148438 C 933.84375 831.050781 953.71875 796.363281 954.515625 758.742188 C 955.457031 717.917969 937.054688 679.40625 914.636719 646.113281 C 902.269531 628.140625 888.652344 611.027344 875.25 593.574219 C 862.242188 576.609375 848.6875 559.769531 838.390625 540.757812 C 829.007812 523.269531 822.945312 503.890625 824.257812 484.011719 C 825.328125 468.214844 830.609375 453.210938 836.894531 438.84375 C 849.949219 409.710938 869.195312 381.210938 870.210938 348.4375 C 871.316406 314.777344 852.5 284.710938 834.421875 257.9375 C 815.945312 230.675781 795.089844 203.082031 787.453125 170.226562 C 779.199219 134.628906 793.226562 102.109375 808.382812 70.78125 C 816.492188 54.277344 824.605469 37.773438 829.480469 19.6875 C 834.148438 1.941406 836.097656 -16.355469 835.460938 -34.644531 C 834.1875 -71.230469 822.003906 -107.675781 800.382812 -137.402344 C 795.039062 -144.558594 789.210938 -151.320312 783.167969 -157.746094 C 781.703125 -159.144531 781.671875 -160.578125 782.1875 -162.132812 C 782.824219 -163.140625 783.738281 -164.210938 785.65625 -164.640625 C 822.664062 -172.917969 1078.984375 -230.257812 1116.269531 -238.601562 C 1121.476562 -239.765625 1126.683594 -240.929688 1131.894531 -242.09375 C 1134.085938 -242.585938 1136.433594 -241.09375 1136.925781 -238.902344 C 1138.890625 -230.125 1140.914062 -221.070312 1142.878906 -212.292969 C 1148.21875 -188.429688 1153.617188 -164.289062 1158.957031 -140.425781 C 1166.933594 -104.765625 1174.847656 -69.382812 1182.828125 -33.722656 C 1192.523438 9.617188 1202.21875 52.957031 1211.972656 96.570312 C 1222.589844 144.023438 1233.144531 191.203125 1243.761719 238.660156 C 1254.5 286.664062 1265.300781 334.9375 1276.039062 382.941406 C 1285.980469 427.378906 1295.980469 472.089844 1305.921875 516.527344 C 1314.390625 554.382812 1322.859375 592.234375 1331.265625 629.8125 C 1337.339844 656.96875 1343.417969 684.125 1349.492188 711.28125 C 1352.375 724.175781 1355.535156 737.003906 1358.082031 749.683594 C 1358.203125 750.234375 1358.328125 750.78125 1358.449219 751.332031 C 1358.941406 753.523438 1357.453125 755.875 1355.257812 756.363281 C 1329.214844 762.191406 1083.585938 817.140625 1057.542969 822.964844 C 1016.148438 832.226562 974.480469 841.546875 933.082031 850.808594 C 923.488281 852.957031 913.894531 855.101562 904.300781 857.25 C 899.214844 858.960938 897.191406 852.5 901.273438 850.148438 Z M 901.273438 850.148438 " fill-opacity="1" fill-rule="nonzero"/></g></g></g><g clip-path="url(#93c558ad21)"><g clip-path="url(#a743fb3844)"><g clip-path="url(#1e74218d36)"><path fill="#252627" d="M 558.890625 861.015625 C 591.464844 841.921875 611.339844 807.230469 612.132812 769.609375 C 613.074219 728.785156 594.671875 690.273438 572.257812 656.980469 C 559.886719 639.011719 546.273438 621.894531 532.867188 604.441406 C 519.863281 587.480469 506.308594 570.636719 496.007812 551.625 C 486.628906 534.140625 480.566406 514.757812 481.875 494.878906 C 482.949219 479.085938 488.226562 464.078125 494.511719 449.710938 C 507.570312 420.578125 526.8125 392.078125 527.828125 359.304688 C 528.933594 325.644531 510.117188 295.578125 492.039062 268.804688 C 473.5625 241.542969 452.707031 213.949219 445.070312 181.09375 C 436.820312 145.496094 450.847656 112.980469 466.003906 81.648438 C 474.113281 65.144531 482.222656 48.640625 487.101562 30.558594 C 491.765625 12.808594 493.71875 -5.488281 493.082031 -23.777344 C 491.804688 -60.359375 479.621094 -96.808594 458.003906 -126.535156 C 452.660156 -133.691406 446.828125 -140.453125 440.785156 -146.878906 C 439.320312 -148.277344 439.289062 -149.710938 439.804688 -151.265625 C 440.441406 -152.273438 441.355469 -153.339844 443.273438 -153.769531 C 480.28125 -162.050781 736.601562 -219.390625 773.886719 -227.730469 C 779.09375 -228.898438 784.304688 -230.0625 789.511719 -231.226562 C 791.707031 -231.71875 794.054688 -230.226562 794.542969 -228.03125 C 796.507812 -219.253906 798.535156 -210.203125 800.496094 -201.425781 C 805.835938 -177.5625 811.234375 -153.421875 816.574219 -129.558594 C 824.550781 -93.898438 832.46875 -58.515625 840.445312 -22.855469 C 850.140625 20.484375 859.835938 63.824219 869.59375 107.4375 C 880.207031 154.894531 890.761719 202.074219 901.378906 249.527344 C 912.117188 297.53125 922.917969 345.808594 933.65625 393.808594 C 943.597656 438.246094 953.601562 482.957031 963.542969 527.394531 C 972.007812 565.25 980.476562 603.101562 988.882812 640.683594 C 994.960938 667.839844 1001.035156 694.992188 1007.109375 722.148438 C 1009.992188 735.042969 1013.152344 747.875 1015.699219 760.550781 C 1015.824219 761.101562 1015.945312 761.648438 1016.070312 762.199219 C 1016.558594 764.394531 1015.070312 766.742188 1012.878906 767.234375 C 986.832031 773.058594 741.203125 828.007812 715.160156 833.835938 C 673.765625 843.09375 632.097656 852.417969 590.703125 861.675781 C 581.105469 863.824219 571.511719 865.96875 561.917969 868.117188 C 556.832031 869.832031 554.8125 863.371094 558.890625 861.015625 Z M 558.890625 861.015625 " fill-opacity="1" fill-rule="nonzero"/></g></g></g></svg>