<svg xmlns="http://www.w3.org/2000/svg" xmlns:xlink="http://www.w3.org/1999/xlink" width="1366" zoomAndPan="magnify" viewBox="0 0 1024.5 576" height="768" preserveAspectRatio="xMidYMid meet" version="1.0"><defs><clipPath id="a0b7670508"><path d="M 0 0.292969 L 1024 0.292969 L 1024 490.042969 L 0 490.042969 Z M 0 0.292969 " clip-rule="nonzero"/></clipPath></defs><g clip-path="url(#a0b7670508)"><path fill="#252627" d="M -17.628906 488.078125 C -5.445312 450.066406 25.753906 421.558594 64.382812 412.054688 C 106.28125 401.660156 150.257812 411.757812 189.777344 427.199219 C 211.171875 435.8125 231.972656 445.910156 253.066406 455.710938 C 273.570312 465.214844 294.074219 475.308594 316.0625 481.546875 C 336.269531 487.1875 357.664062 488.96875 377.867188 483.03125 C 393.914062 478.28125 408.175781 469.371094 421.546875 459.570312 C 448.589844 439.375 473.546875 412.945312 507.125 404.335938 C 541.59375 395.425781 576.953125 407.898438 608.75 420.371094 C 641.136719 433.140625 674.417969 448.285156 710.074219 448.582031 C 748.703125 448.878906 779.011719 426.902344 807.835938 404.039062 C 822.988281 391.863281 838.144531 379.6875 855.675781 370.480469 C 872.910156 361.570312 891.332031 355.335938 910.347656 351.769531 C 948.382812 344.644531 988.792969 348.800781 1024.453125 364.242188 C 1033.070312 368.105469 1041.390625 372.558594 1049.410156 377.308594 C 1051.195312 378.5 1052.679688 378.203125 1054.167969 377.308594 C 1055.058594 376.417969 1055.949219 375.230469 1055.949219 373.152344 C 1055.949219 333.0625 1055.949219 55.398438 1055.949219 15.007812 C 1055.949219 9.367188 1055.949219 3.726562 1055.949219 -1.917969 C 1055.949219 -4.292969 1053.867188 -6.371094 1051.492188 -6.371094 C 1041.984375 -6.371094 1032.175781 -6.371094 1022.667969 -6.371094 C 996.816406 -6.371094 970.667969 -6.371094 944.816406 -6.371094 C 906.1875 -6.371094 867.855469 -6.371094 829.230469 -6.371094 C 782.28125 -6.371094 735.332031 -6.371094 688.085938 -6.371094 C 636.679688 -6.371094 585.570312 -6.371094 534.164062 -6.371094 C 482.164062 -6.371094 429.867188 -6.371094 377.867188 -6.371094 C 329.730469 -6.371094 281.296875 -6.371094 233.160156 -6.371094 C 192.152344 -6.371094 151.148438 -6.371094 110.441406 -6.371094 C 81.023438 -6.371094 51.605469 -6.371094 22.1875 -6.371094 C 8.222656 -6.371094 -5.742188 -6.667969 -19.410156 -6.371094 C -20.007812 -6.371094 -20.601562 -6.371094 -21.195312 -6.371094 C -23.570312 -6.371094 -25.652344 -4.292969 -25.652344 -1.917969 C -25.652344 26.292969 -25.652344 292.378906 -25.652344 320.589844 C -25.652344 365.433594 -25.652344 410.570312 -25.652344 455.414062 C -25.652344 465.808594 -25.652344 476.199219 -25.652344 486.59375 C -26.246094 492.238281 -19.113281 492.832031 -17.628906 488.078125 Z M -17.628906 488.078125 " fill-opacity="1" fill-rule="nonzero"/></g></svg>