<svg xmlns="http://www.w3.org/2000/svg" xmlns:xlink="http://www.w3.org/1999/xlink" width="500" zoomAndPan="magnify" viewBox="0 0 375 374.999991" height="500" preserveAspectRatio="xMidYMid meet" version="1.0"><defs><clipPath id="02268bf39e"><path d="M 198 23 L 288 23 L 288 104 L 198 104 Z M 198 23 " clip-rule="nonzero"/></clipPath><clipPath id="689246db60"><path d="M -22.089844 68.824219 L 283.78125 0.0664062 L 352.535156 305.933594 L 46.667969 374.691406 Z M -22.089844 68.824219 " clip-rule="nonzero"/></clipPath><clipPath id="b753ac5a15"><path d="M -22.089844 68.824219 L 283.78125 0.0664062 L 352.535156 305.933594 L 46.667969 374.691406 Z M -22.089844 68.824219 " clip-rule="nonzero"/></clipPath><clipPath id="895a17bc22"><path d="M 59 273 L 131 273 L 131 344 L 59 344 Z M 59 273 " clip-rule="nonzero"/></clipPath><clipPath id="dbb82f3ca9"><path d="M -22.089844 68.824219 L 283.78125 0.0664062 L 352.535156 305.933594 L 46.667969 374.691406 Z M -22.089844 68.824219 " clip-rule="nonzero"/></clipPath><clipPath id="5b8182a52c"><path d="M -22.089844 68.824219 L 283.78125 0.0664062 L 352.535156 305.933594 L 46.667969 374.691406 Z M -22.089844 68.824219 " clip-rule="nonzero"/></clipPath><clipPath id="ebadd4dccb"><path d="M 94 82 L 239 82 L 239 288 L 94 288 Z M 94 82 " clip-rule="nonzero"/></clipPath><clipPath id="c35ba8cbef"><path d="M -22.089844 68.824219 L 283.78125 0.0664062 L 352.535156 305.933594 L 46.667969 374.691406 Z M -22.089844 68.824219 " clip-rule="nonzero"/></clipPath><clipPath id="5cb6b8fd7d"><path d="M -22.089844 68.824219 L 283.78125 0.0664062 L 352.535156 305.933594 L 46.667969 374.691406 Z M -22.089844 68.824219 " clip-rule="nonzero"/></clipPath><clipPath id="6705acc92b"><path d="M 69 68 L 261 68 L 261 307 L 69 307 Z M 69 68 " clip-rule="nonzero"/></clipPath><clipPath id="246d30d191"><path d="M -22.089844 68.824219 L 283.78125 0.0664062 L 352.535156 305.933594 L 46.667969 374.691406 Z M -22.089844 68.824219 " clip-rule="nonzero"/></clipPath><clipPath id="ea99a1741d"><path d="M -22.089844 68.824219 L 283.78125 0.0664062 L 352.535156 305.933594 L 46.667969 374.691406 Z M -22.089844 68.824219 " clip-rule="nonzero"/></clipPath><clipPath id="a4cbf53855"><path d="M 45 13 L 299 13 L 299 374 L 45 374 Z M 45 13 " clip-rule="nonzero"/></clipPath><clipPath id="db734689be"><path d="M -22.089844 68.824219 L 283.78125 0.0664062 L 352.535156 305.933594 L 46.667969 374.691406 Z M -22.089844 68.824219 " clip-rule="nonzero"/></clipPath><clipPath id="3d5cedc34f"><path d="M -22.089844 68.824219 L 283.78125 0.0664062 L 352.535156 305.933594 L 46.667969 374.691406 Z M -22.089844 68.824219 " clip-rule="nonzero"/></clipPath><clipPath id="9718f029f6"><path d="M -22.058594 68.945312 L 284.171875 0.109375 L 352.875 305.730469 L 46.640625 374.570312 Z M -22.058594 68.945312 " clip-rule="nonzero"/></clipPath><clipPath id="76ab4a4990"><path d="M -22.058594 68.945312 L 283.792969 0.191406 L 352.496094 305.816406 L 46.640625 374.570312 Z M -22.058594 68.945312 " clip-rule="nonzero"/></clipPath></defs><g clip-path="url(#02268bf39e)"><g clip-path="url(#689246db60)"><g clip-path="url(#b753ac5a15)"><path fill="#f2977a" d="M 231.808594 24.875 C 229.6875 23.535156 227.148438 23.097656 224.671875 23.65625 C 222.207031 24.207031 220.109375 25.683594 218.773438 27.792969 L 198.109375 60.441406 L 265.785156 103.273438 L 286.449219 70.628906 C 287.789062 68.511719 288.21875 65.988281 287.667969 63.519531 C 287.109375 61.042969 285.636719 58.949219 283.523438 57.605469 L 231.808594 24.875 " fill-opacity="1" fill-rule="nonzero"/></g></g></g><g clip-path="url(#895a17bc22)"><g clip-path="url(#dbb82f3ca9)"><g clip-path="url(#5b8182a52c)"><path fill="#f4e5e0" d="M 98.960938 296.683594 C 97.167969 296.605469 95.535156 295.585938 94.699219 293.988281 L 85.648438 276.78125 L 65.554688 273.390625 L 59.773438 328.617188 L 82.617188 343.070312 L 130.054688 314.21875 L 118.382812 297.492188 L 98.960938 296.683594 " fill-opacity="1" fill-rule="nonzero"/></g></g></g><g clip-path="url(#ebadd4dccb)"><g clip-path="url(#c35ba8cbef)"><g clip-path="url(#5cb6b8fd7d)"><path fill="#fbac0f" d="M 214.746094 82.933594 L 204.964844 98.382812 L 94.796875 272.445312 L 102.289062 286.707031 L 118.386719 287.371094 L 228.558594 113.320312 L 238.339844 97.867188 L 214.746094 82.933594 " fill-opacity="1" fill-rule="nonzero"/></g></g></g><g clip-path="url(#6705acc92b)"><g clip-path="url(#246d30d191)"><g clip-path="url(#ea99a1741d)"><path fill="#f9c74f" d="M 206.203125 77.527344 L 192.707031 68.984375 L 184.164062 82.476562 L 69.421875 263.789062 L 86.484375 266.664062 L 196.421875 92.976562 Z M 246.882812 103.273438 L 237.101562 118.730469 L 127.164062 292.414062 L 137.078125 306.617188 L 252.203125 124.734375 L 260.378906 111.816406 L 246.882812 103.273438 " fill-opacity="1" fill-rule="nonzero"/></g></g></g><g clip-path="url(#a4cbf53855)"><g clip-path="url(#db734689be)"><g clip-path="url(#3d5cedc34f)"><g clip-path="url(#9718f029f6)"><g clip-path="url(#76ab4a4990)"><path fill="#000000" d="M 286.449219 70.628906 L 265.785156 103.273438 L 198.109375 60.441406 L 218.773438 27.792969 C 220.109375 25.683594 222.207031 24.207031 224.671875 23.65625 C 227.148438 23.097656 229.6875 23.535156 231.808594 24.875 L 283.523438 57.605469 C 285.636719 58.949219 287.109375 61.042969 287.667969 63.519531 C 288.21875 65.988281 287.789062 68.511719 286.449219 70.628906 Z M 252.203125 124.734375 L 137.078125 306.617188 L 127.164062 292.414062 L 237.101562 118.730469 L 246.882812 103.273438 L 260.378906 111.816406 Z M 82.617188 343.070312 L 59.773438 328.617188 L 65.554688 273.390625 L 85.648438 276.78125 L 94.699219 293.988281 C 95.535156 295.585938 97.167969 296.605469 98.960938 296.683594 L 118.382812 297.492188 L 130.054688 314.21875 Z M 214.746094 82.933594 L 238.339844 97.867188 L 228.558594 113.320312 L 118.386719 287.371094 L 102.289062 286.707031 L 94.796875 272.445312 L 204.964844 98.382812 Z M 184.164062 82.476562 L 192.707031 68.984375 L 206.203125 77.527344 L 196.421875 92.976562 L 86.484375 266.664062 L 69.421875 263.789062 Z M 288.929688 49.066406 L 237.210938 16.328125 C 228.398438 10.761719 215.792969 13.589844 210.230469 22.386719 L 56.8125 264.804688 C 56.40625 265.449219 56.117188 266.222656 56.042969 267.136719 C 55.96875 268.054688 45.488281 367.988281 45.488281 367.988281 C 45.390625 368.941406 45.21875 370.941406 47.8125 372.785156 C 50.152344 374.445312 52.664062 373.121094 53.140625 372.832031 C 53.140625 372.832031 139.261719 320.539062 139.910156 320.0625 C 140.550781 319.589844 141.183594 319.027344 141.554688 318.449219 L 294.988281 76.039062 C 297.777344 71.644531 298.679688 66.40625 297.535156 61.304688 C 296.382812 56.191406 293.328125 51.847656 288.929688 49.066406 " fill-opacity="1" fill-rule="nonzero"/></g></g></g></g></g></svg>